<svg width="32" height="32" viewBox="0 0 32 32" fill="none" xmlns="http://www.w3.org/2000/svg">
<g clip-path="url(#clip0_121145_102554)">
<path d="M13.878 25.1387L13.8676 24.8478C13.8469 24.3415 13.6915 23.8567 13.4118 23.4365C12.9975 22.8332 12.5935 22.2407 12.1998 21.6266C11.9823 21.2818 11.9719 20.8509 12.148 20.4954L12.1791 20.4307C12.8835 19.0518 12.8524 17.3819 12.1169 16.0245C9.94156 19.5258 7.74546 23.6412 6.07766 28.1121L16.2502 28.0583C16.2916 27.9398 16.2191 27.7566 16.2502 27.6273C14.9449 27.5627 13.9194 26.4854 13.878 25.1387Z" fill="black"/>
<path d="M7.18604 11.2519C7.53824 11.0579 7.69363 10.6593 7.33107 9.89441C6.83384 8.82785 6.15014 8.45078 5.33178 8.25686C5.05209 8.203 4.78276 8.39692 4.7206 8.6878C4.68953 8.88172 4.75168 9.08641 4.90706 9.20492L7.18604 11.2519C6.86491 11.4242 6.3884 11.4242 5.94296 11.3596C2.27588 10.7994 0.835987 6.52236 0.835987 6.52236C0.835987 6.52236 5.09353 4.87404 7.63148 7.63201C7.75578 7.78284 7.88009 7.93366 7.99404 8.09526C8.42912 8.69857 8.57414 9.47425 8.39804 10.2068C8.31517 10.5408 8.15978 10.8425 7.91117 10.9502" fill="black"/>
<path d="M16.2916 5.67127C16.6749 5.6605 17.0374 5.53122 17.3482 5.29421C18.1976 4.65858 18.7777 3.27959 18.7777 1.68514C18.7777 1.65282 18.7777 1.6205 18.7777 1.58818C18.7674 0.887913 19.3061 0.306153 19.9897 0.29538C20.0001 0.29538 20.0001 0.29538 20.0105 0.29538H20.0623C20.7356 0.29538 21.2846 0.866366 21.2846 1.57741C21.2846 1.71746 21.2639 1.84674 21.2225 1.97602C21.0464 2.55778 20.9531 3.15031 20.9635 3.76439C20.9635 5.20802 21.44 6.47927 22.1651 7.17954L22.7556 7.64279C23.201 8.01986 23.605 8.42925 23.9883 8.87096L24.0297 8.82786C24.2576 8.39693 24.5373 7.99831 24.8585 7.64279C27.3964 4.88482 31.654 6.53314 31.654 6.53314C31.654 6.53314 30.2037 10.8209 26.547 11.3704C26.1015 11.435 25.625 11.435 25.3039 11.2626L27.5725 9.22647C28.0076 8.88173 27.6865 8.14914 27.1478 8.27842C26.3398 8.47234 25.6561 8.84941 25.1485 9.91597C24.7963 10.6701 24.9413 11.0795 25.2935 11.2734L21.3157 14.8502C19.7618 16.2399 19.3371 18.567 20.3005 20.4523L20.3316 20.5169C20.5181 20.8724 20.4973 21.3142 20.2798 21.6481C19.8965 22.2622 19.4822 22.8655 19.0678 23.4581C18.7881 23.8674 18.6327 24.363 18.612 24.8694L18.6016 25.1602C18.5602 26.5392 17.4725 27.6381 16.1466 27.6489V5.67127H16.2916Z" fill="black"/>
<path d="M16.2916 5.67127C16.6749 5.6605 17.0374 5.53122 17.3482 5.29421C18.1976 4.65858 18.7777 3.27959 18.7777 1.68514C18.7777 1.65282 18.7777 1.6205 18.7777 1.58818C18.7674 0.887913 19.3061 0.306153 19.9897 0.29538C20.0001 0.29538 20.0001 0.29538 20.0105 0.29538H20.0623C20.7356 0.29538 21.2846 0.866366 21.2846 1.57741C21.2846 1.71746 21.2639 1.84674 21.2225 1.97602C21.0464 2.55778 20.9531 3.15031 20.9635 3.76439C20.9635 5.20802 21.44 6.47927 22.1651 7.17954L22.7556 7.64279C23.201 8.01986 23.605 8.42925 23.9883 8.87096L24.0297 8.82786C24.2576 8.39693 24.5373 7.99831 24.8585 7.64279C27.3964 4.88482 31.654 6.53314 31.654 6.53314C31.654 6.53314 30.2037 10.8209 26.547 11.3704C26.1015 11.435 25.625 11.435 25.3039 11.2626L27.5725 9.22647C28.0076 8.88173 27.6865 8.14914 27.1478 8.27842C26.3398 8.47234 25.6561 8.84941 25.1485 9.91597C24.7963 10.6701 24.9413 11.0795 25.2935 11.2734L21.3157 14.8502C19.7618 16.2399 19.3371 18.567 20.3005 20.4523L20.3316 20.5169C20.5181 20.8724 20.4973 21.3142 20.2798 21.6481C19.8965 22.2622 19.4822 22.8655 19.0678 23.4581C18.7881 23.8674 18.6327 24.363 18.612 24.8694L18.6016 25.1602C18.5602 26.5392 17.4725 27.6381 16.1466 27.6489V5.67127H16.2916Z" fill="black"/>
<path d="M15.121 5.27266C14.282 4.62626 13.7122 3.26882 13.7122 1.68514C13.7122 1.65282 13.7122 1.6205 13.7122 1.58818C13.7226 0.887914 13.1839 0.306153 12.5002 0.29538C12.4899 0.29538 12.4899 0.29538 12.4795 0.29538H12.4277C11.7544 0.29538 11.2053 0.866366 11.2053 1.57741C11.2053 1.71746 11.2261 1.84674 11.2675 1.97602C11.4436 2.55778 11.5368 3.15031 11.5265 3.76439C11.5368 4.60472 11.3607 5.43426 11.0189 6.1884C12.1169 5.10029 13.7019 4.75554 15.121 5.27266Z" fill="black"/>
</g>
<defs>
<clipPath id="clip0_121145_102554">
<rect width="32" height="32" fill="black" transform="translate(0.653847)"/>
</clipPath>
</defs>
</svg>
