<svg width="100" height="100" viewBox="0 0 100 100" fill="none" xmlns="http://www.w3.org/2000/svg">
<g clip-path="url(#clip0_1986_52617)">
<path d="M100 50C100 77.6146 77.6146 100 50 100C22.3854 100 0 77.6146 0 50C0 22.3854 22.3854 0 50 0C77.6146 0 100 22.3854 100 50Z" fill="#80D8B9"/>
<path d="M100 50C100 55.0881 99.24 59.9982 97.8264 64.6232C96.8438 67.8398 95.5467 70.9184 93.9689 73.8242C92.3576 76.793 65.1816 80.4826 50 80.4826C34.8184 80.4826 7.64238 76.793 6.0334 73.8242C5.39102 72.6463 4.79668 71.4395 4.25195 70.2049C1.51758 64.0273 0 57.1914 0 50C0 40.9729 2.39258 32.5059 6.57812 25.1953C15.1955 40.248 31.4141 50.3906 50 50.3906C68.5859 50.3906 84.8068 40.248 93.4219 25.1953C97.6074 32.5059 100 40.9729 100 50Z" fill="#80D8B9"/>
<path d="M93.9969 73.7695C92.5984 76.3521 90.9824 78.7973 89.1682 81.0801C87.5203 83.1568 85.7074 85.0977 83.7543 86.8853C74.86 95.0297 63.01 100 50.0004 100C36.9908 100 25.1408 95.0297 16.2465 86.8853C14.2934 85.0977 12.4805 83.1568 10.8326 81.0801C9.01836 78.7973 7.40234 76.3521 6.00391 73.7695H93.9969Z" fill="#3C84B1"/>
<path d="M29.7869 24.3457H29.4893C28.1701 24.3457 27.1014 23.276 27.1014 21.9576V21.6602H25.3992V21.9576C25.3992 23.276 24.3295 24.3457 23.0111 24.3457H22.7129V26.0479H23.0111C24.3295 26.0479 25.3992 27.1166 25.3992 28.4357V28.7342H27.1014V28.4357C27.1014 27.1166 28.1701 26.0479 29.4893 26.0479H29.7869V24.3457Z" fill="white"/>
<path d="M60.5555 12.5371H60.2578C58.9387 12.5371 57.8699 11.4674 57.8699 10.149V9.85156H56.1678V10.149C56.1678 11.4674 55.098 12.5371 53.7797 12.5371H53.4814V14.2393H53.7797C55.098 14.2393 56.1678 15.308 56.1678 16.6271V16.9256H57.8699V16.6271C57.8699 15.308 58.9387 14.2393 60.2578 14.2393H60.5555V12.5371Z" fill="white"/>
<path d="M77.2605 27.0313H76.9629C75.6438 27.0313 74.575 25.9615 74.575 24.6432V24.3457H72.8729V24.6432C72.8729 25.9615 71.8031 27.0313 70.4848 27.0313H70.1865V28.7334H70.4848C71.8031 28.7334 72.8729 29.8021 72.8729 31.1213V31.4197H74.575V31.1213C74.575 29.8021 75.6438 28.7334 76.9629 28.7334H77.2605V27.0313Z" fill="white"/>
<path d="M33.6531 71.0078C33.2484 70.9318 32.9566 71.187 32.6402 71.3587C29.9912 72.795 27.343 74.2321 24.6957 75.6701C24.5853 75.7195 24.4714 75.7605 24.3548 75.7928L24.3438 75.7793L24.3511 75.5425C24.5203 75.3977 24.6982 75.2627 24.8551 75.1057C42.7332 57.2224 60.6096 39.3378 78.4844 21.452C78.6414 21.295 78.7763 21.1171 78.921 20.9478C78.9901 20.9352 79.0613 20.9413 79.1273 20.9655C79.1933 20.9896 79.2516 21.031 79.2963 21.0852C79.6622 21.491 79.9883 21.931 80.27 22.3992C80.752 23.2507 81.0059 24.1757 81.2511 25.1119V27.0749C80.9372 28.2061 80.6269 29.33 79.9242 30.309C79.2006 31.3163 78.222 32.0525 77.3194 32.8659C75.8404 34.1995 74.3221 35.4866 72.8259 36.7993C71.2231 38.2066 69.6288 39.6212 68.0259 41.0309C67.8964 41.1285 67.7966 41.2602 67.7377 41.4113C67.4802 41.4284 67.3698 41.6567 67.2116 41.7965C66.4218 42.4946 65.6406 43.2001 64.8496 43.8957C63.2676 45.2862 61.6831 46.6726 60.0962 48.0549C58.8772 49.1211 57.6324 50.1579 56.4453 51.2572C55.7229 51.927 54.8792 52.4742 54.3053 53.3C53.5694 53.5453 53.1083 54.1784 52.5528 54.6594C49.9406 56.923 47.3664 59.2283 44.7751 61.5165C44.6672 61.6122 44.547 61.6883 44.5298 61.8478C44.0871 62.0085 43.8357 62.4011 43.5021 62.6931C41.172 64.7396 38.8505 66.7934 36.5118 68.8276C35.7196 69.5172 34.9776 70.284 33.9696 70.6815C33.8163 70.733 33.6531 70.8017 33.6531 71.0078Z" fill="#87C7FF"/>
<path d="M78.9205 20.9501C78.7758 21.1194 78.6409 21.2973 78.4839 21.4544C60.6099 39.3402 42.7335 57.2247 24.8546 75.108C24.6976 75.2651 24.5198 75.4 24.3506 75.5448C24.4573 74.8381 24.9172 74.2934 25.2348 73.691C26.3385 71.6052 27.5024 69.5514 28.6208 67.473C28.8085 67.1246 29.1592 66.8375 29.1114 66.3811C29.196 66.2952 29.3125 66.2265 29.3566 66.1234C30.166 64.3542 31.6009 63.066 32.831 61.6268C34.1714 60.0564 35.6026 58.5596 36.9307 56.9842C37.3636 56.4689 37.9842 56.0739 38.1657 55.361C38.8941 55.0764 39.1995 54.3562 39.6925 53.8372C40.8061 52.6643 41.835 51.4092 42.9032 50.1909C44.0903 48.8339 45.2803 47.4798 46.4731 46.1286C46.5282 46.069 46.5693 45.9979 46.5937 45.9205C46.6181 45.8431 46.6251 45.7612 46.6142 45.6808C46.8472 45.6808 46.9821 45.5115 47.1121 45.3642C47.4963 44.9471 47.8765 44.5263 48.2526 44.1018C49.5869 42.6049 50.9191 41.1065 52.2493 39.6064C54.0313 37.5881 55.8193 35.5748 57.5743 33.532C57.9164 33.1345 58.4205 32.8228 58.4805 32.2204C58.9061 32.1468 59.1146 31.7837 59.3611 31.5052C61.3233 29.2845 63.2585 27.0392 65.2182 24.8161C66.387 23.491 67.5483 22.1623 68.7747 20.89C69.8421 19.7451 71.2855 19.0227 72.8414 18.8546C72.9159 18.83 72.9856 18.7926 73.0474 18.7441H74.887C75.8214 19.0288 76.7989 19.2116 77.6316 19.7563C78.1197 20.0815 78.7132 20.3133 78.9205 20.9501Z" fill="#A3D4FF"/>
<path d="M58.4789 32.2206C58.4188 32.823 57.9147 33.1346 57.5726 33.5322C55.8176 35.5749 54.0296 37.5883 52.2477 39.6065C50.924 41.1099 49.5934 42.6084 48.2558 44.1019C47.8797 44.5256 47.4996 44.9464 47.1153 45.3644C46.9792 45.5116 46.8504 45.6809 46.6174 45.6809C43.4468 44.4197 40.2762 43.1588 37.1056 41.8984C32.4454 40.0482 27.7815 38.1993 23.1139 36.3516C21.7539 35.8117 20.4061 35.2474 19.0436 34.7137C18.6549 34.5628 18.6757 34.4118 18.9283 34.1603C21.3492 31.7409 23.7688 29.3198 26.1872 26.8971C26.3687 26.7155 26.5551 26.7143 26.8004 26.7584C29.4698 27.2361 32.1409 27.7027 34.8135 28.1583C35.0365 28.1792 35.2608 28.1829 35.4844 28.1694C35.5653 28.3154 35.7235 28.3215 35.8523 28.3448C37.1952 28.5779 38.5405 28.8012 39.8858 29.027L44.3008 29.7631C44.5657 29.9459 44.8857 29.8981 45.1764 29.9447C46.3795 30.141 47.5605 30.4858 48.7917 30.4772C49.5141 30.8256 50.3149 30.8207 51.0789 30.9679C53.4593 31.4133 55.8507 31.8022 58.2385 32.212C58.3184 32.2196 58.3986 32.2225 58.4789 32.2206Z" fill="#737B97"/>
<path d="M54.3008 53.3028C54.8747 52.477 55.7185 51.9298 56.4408 51.26C57.6279 50.1557 58.8727 49.1239 60.0917 48.0577C61.6778 46.6722 63.2623 45.2858 64.8451 43.8985C65.6361 43.2029 66.4173 42.4974 67.2071 41.7993C67.3702 41.6558 67.4757 41.4312 67.7332 41.4141C68.2802 44.5795 68.8272 47.7445 69.3741 50.9091C69.395 51.0318 69.3974 51.1544 69.5115 51.233C69.5875 52.7494 69.9321 54.2229 70.2265 55.705L70.9733 60.128C71.0543 60.6433 71.1045 61.1647 71.2186 61.6702C71.4406 62.6223 71.4209 63.6235 71.8036 64.5412C71.8759 66.0711 72.272 67.5508 72.5038 69.0574C72.7184 70.4634 72.9797 71.8633 73.2397 73.262C73.2912 73.5344 73.1698 73.6804 73.0066 73.8423C70.6128 76.236 68.2115 78.6272 65.8336 81.032C65.3357 81.5362 65.3148 81.0737 65.1983 80.7866C62.672 74.4492 60.1481 68.1102 57.6267 61.7696C56.5761 59.1219 55.5255 56.4743 54.4749 53.8266C54.4075 53.6524 54.3584 53.4757 54.3008 53.3028Z" fill="#4E5262"/>
<path d="M38.1676 55.3565C37.9861 56.0693 37.3656 56.4607 36.9327 56.9797C35.6045 58.56 34.1733 60.047 32.8329 61.6223C31.6065 63.0615 30.168 64.3497 29.3586 66.1189C29.312 66.222 29.1955 66.2907 29.1133 66.3766C27.5031 65.3889 25.8892 64.4074 24.2826 63.4136C22.7264 62.4505 21.1836 61.4653 19.6224 60.5107C19.2337 60.2727 19.1404 60.1022 19.5084 59.7427C20.85 58.434 22.1765 57.1081 23.4879 55.7651C23.8779 55.3676 24.3697 55.3602 24.837 55.359C29.2813 55.3455 33.7245 55.3541 38.1676 55.3565Z" fill="#80A5AF"/>
<path d="M33.6533 71.0099C33.6533 70.8038 33.8164 70.7351 33.9636 70.6774C34.9717 70.2799 35.7136 69.5131 36.5059 68.8236C38.8458 66.7906 41.1661 64.7368 43.4962 62.6891C43.8298 62.3971 44.0812 62.0045 44.5239 61.8438C44.5288 66.5133 44.5353 71.1833 44.5435 75.8537C44.5428 75.9747 44.516 76.0941 44.465 76.2038C44.414 76.3134 44.34 76.4108 44.248 76.4893C42.9088 77.8315 41.5696 79.175 40.2438 80.5295C39.9789 80.8006 39.8048 80.9049 39.5571 80.5049C37.5973 77.3354 35.6294 74.1704 33.6533 71.0099Z" fill="#799BA5"/>
<path d="M39.8829 29.0276C38.5339 28.8019 37.1922 28.5786 35.8494 28.3455C35.7194 28.3222 35.5612 28.316 35.4814 28.17C37.7944 25.8463 40.1061 23.5221 42.4166 21.1975C42.6729 20.9374 42.8446 20.9092 43.1083 21.1865C43.7214 21.8368 44.3543 22.4747 45.0091 23.0857C45.3304 23.3863 45.2924 23.5765 44.9956 23.8685C43.4296 25.412 41.8807 26.9726 40.3281 28.5307C40.1699 28.6878 40.0301 28.862 39.8829 29.0276Z" fill="#5A637B"/>
<path d="M71.8078 64.536C71.4252 63.6183 71.4399 62.6172 71.2228 61.6651C71.1002 61.1596 71.0548 60.6382 70.9775 60.1229C72.6712 58.4469 74.3783 56.7857 76.0461 55.084C76.43 54.6914 76.6336 54.6901 76.9892 55.084C77.5301 55.6974 78.1163 56.263 78.716 56.8151C79.0348 57.1096 79.0839 57.2801 78.738 57.6212C76.4116 59.9155 74.1134 62.2295 71.8078 64.536Z" fill="#22273B"/>
<path d="M70.2238 55.697C69.9294 54.2149 69.5848 52.7414 69.5088 51.2249C70.848 49.8913 72.1982 48.565 73.5227 47.2154C73.8109 46.9222 73.9789 46.8731 74.2818 47.2007C74.9024 47.873 75.5609 48.5098 76.2195 49.1453C76.4366 49.3539 76.4795 49.4852 76.2391 49.7219C74.2262 51.7054 72.2211 53.6971 70.2238 55.697Z" fill="#22273B"/>
<path d="M48.7908 30.4826C47.5644 30.4911 46.3785 30.1464 45.1754 29.9501C44.8848 29.9035 44.5622 29.9501 44.2998 29.7685C46.2939 27.758 48.2863 25.7459 50.2771 23.7321C50.4893 23.5174 50.6242 23.5383 50.8229 23.7432C51.4765 24.4155 52.1302 25.0928 52.8145 25.7283C53.1186 26.0129 53.0806 26.181 52.8047 26.4534C51.4581 27.7858 50.13 29.1379 48.7908 30.4826Z" fill="#5A637B"/>
<path d="M24.3548 75.7967C24.3082 75.8261 24.2616 75.8568 24.2138 75.8838C24.2019 75.8689 24.1908 75.8533 24.1807 75.8372L24.3438 75.7832L24.3548 75.7967Z" fill="#9CD3D8"/>
</g>
<defs>
<clipPath id="clip0_1986_52617">
<rect width="100" height="100" fill="white"/>
</clipPath>
</defs>
</svg>
