<svg width="25" height="27" viewBox="0 0 25 27" fill="none" xmlns="http://www.w3.org/2000/svg">
<path d="M22.3066 2.36301L20.343 0.399414L18.3794 2.36301L16.4158 0.399414L14.4522 2.36301L12.4886 0.399414L10.525 2.36301L8.56142 0.399414L6.59782 2.36301L4.63423 0.399414V18.7263H0.707031V22.6535C0.707031 24.8266 2.46118 26.5807 4.63423 26.5807H20.343C22.5161 26.5807 24.2702 24.8266 24.2702 22.6535V0.399414L22.3066 2.36301ZM16.4158 23.9626H4.63423C3.91424 23.9626 3.32516 23.3735 3.32516 22.6535V21.3445H16.4158V23.9626ZM21.6521 22.6535C21.6521 23.3735 21.063 23.9626 20.343 23.9626C19.623 23.9626 19.0339 23.3735 19.0339 22.6535V18.7263H7.25236V4.32661H21.6521V22.6535Z" fill="white"/>
<path d="M16.4149 6.94434H8.56055V9.56247H16.4149V6.94434Z" fill="white"/>
<path d="M20.3427 6.94434H17.7246V9.56247H20.3427V6.94434Z" fill="white"/>
<path d="M16.4149 10.8721H8.56055V13.4902H16.4149V10.8721Z" fill="white"/>
<path d="M20.3427 10.8721H17.7246V13.4902H20.3427V10.8721Z" fill="white"/>
</svg>
