<svg width="142" height="142" viewBox="0 0 142 142" fill="none" xmlns="http://www.w3.org/2000/svg">
<g clip-path="url(#clip0_1986_60762)">
<path d="M142 42.2213C142 25.5871 128.467 12.0538 111.832 12.0538H90.9593C85.7386 5.99494 78.7396 2.00063 71 0.580078L68.2266 50.4251L71 100.85H104.029C119.629 100.85 132.32 88.1583 132.32 72.5585C132.32 70.0572 131.998 67.5994 131.359 65.2173C138.073 59.5137 142 51.1296 142 42.2213Z" fill="#8F9FBF"/>
<path d="M64.6233 0C54.4797 0 44.778 4.50323 38.2013 12.1568C37.3945 12.088 36.5841 12.0534 35.7751 12.0534C20.1754 12.0534 7.48384 24.7449 7.48384 40.3446C7.48384 41.4546 7.54902 42.5662 7.67826 43.6675C2.77427 49.0188 0 56.0831 0 63.3789C0 79.4523 13.0765 92.5288 29.1499 92.5288C31.5792 92.5288 33.9738 92.2321 36.3004 91.6446C41.7985 97.5277 49.3977 100.849 57.561 100.849H71V0.579648C68.921 0.198023 66.7891 0 64.6233 0V0Z" fill="#B9C9D9"/>
<path d="M114.86 79.9258L90.2847 79.8628V70.7732L102.858 61.9764C104.757 60.6485 105.89 58.4727 105.89 56.1563C105.89 53.6927 103.962 51.6656 101.593 51.637C101.576 51.6367 101.558 51.6367 101.54 51.6367C99.4609 51.6367 97.6701 53.1019 97.2699 55.1396L89.1055 53.5362C90.2728 47.5919 95.4883 43.3164 101.539 43.3164C101.591 43.3164 101.642 43.3167 101.694 43.3172C108.596 43.4002 114.21 49.1598 114.21 56.1563C114.21 61.1865 111.75 65.9108 107.628 68.794L103.651 71.5766L114.882 71.6055L114.86 79.9258Z" fill="#E6ECF2"/>
<path d="M37.7188 71.6055C30.837 71.6055 25.2383 66.0067 25.2383 59.125V41.9297C25.2383 35.048 30.837 29.4492 37.7188 29.4492C44.6005 29.4492 50.1992 35.048 50.1992 41.9297H41.8789C41.8789 39.6358 40.0127 37.7695 37.7188 37.7695C35.4248 37.7695 33.5586 39.6358 33.5586 41.9297V59.125C33.5586 61.4189 35.4248 63.2852 37.7188 63.2852C40.0127 63.2852 41.8789 61.4189 41.8789 59.125H50.1992C50.1992 66.0067 44.6005 71.6055 37.7188 71.6055Z" fill="#FFF5F5"/>
<path d="M97.7637 112.879H81.123L78.3496 127.439L81.123 142H97.7637C105.792 142 112.324 135.468 112.324 127.439C112.324 119.411 105.792 112.879 97.7637 112.879Z" fill="#8F9FBF"/>
<path d="M27.041 100.85H20.8008L18.0273 115.41L20.8008 129.971H27.041C35.0696 129.971 41.6016 123.439 41.6016 115.41C41.6016 107.382 35.0696 100.85 27.041 100.85Z" fill="#8F9FBF"/>
<path d="M14.5605 100.85C6.532 100.85 0 107.382 0 115.41C0 123.439 6.532 129.971 14.5605 129.971H20.8008V100.85H14.5605Z" fill="#B9C9D9"/>
<path d="M64.4824 112.879C56.4539 112.879 49.9219 119.411 49.9219 127.439C49.9219 135.468 56.4539 142 64.4824 142H81.123V112.879H64.4824Z" fill="#B9C9D9"/>
<path d="M71 29.4492L68.2266 33.6094L71 37.7695C73.2939 37.7695 75.1602 39.6358 75.1602 41.9297V59.125C75.1602 61.4189 73.2939 63.2852 71 63.2852L68.2266 67.4453L71 71.6055C77.8817 71.6055 83.4805 66.0067 83.4805 59.125V41.9297C83.4805 35.0477 77.8817 29.4492 71 29.4492Z" fill="#E6ECF2"/>
<path d="M66.8398 59.125V41.9297C66.8398 39.6358 68.7061 37.7695 71 37.7695V29.4492C64.1183 29.4492 58.5195 35.048 58.5195 41.9297V59.125C58.5195 66.0067 64.1183 71.6055 71 71.6055V63.2852C68.7061 63.2852 66.8398 61.4189 66.8398 59.125Z" fill="#FFF5F5"/>
</g>
<defs>
<clipPath id="clip0_1986_60762">
<rect width="142" height="142" fill="white"/>
</clipPath>
</defs>
</svg>
