<svg width="100" height="100" viewBox="0 0 100 100" fill="none" xmlns="http://www.w3.org/2000/svg">
<g clip-path="url(#clip0_1986_52557)">
<path d="M93.9959 73.7676C92.5975 76.3502 90.9814 78.7953 89.1672 81.0781C87.5193 83.1549 85.7064 85.0957 83.7533 86.8834C74.859 95.0277 63.009 99.9982 49.9994 99.9982C36.9898 99.9982 25.1398 95.0277 16.2455 86.8834C14.2924 85.0957 12.4795 83.1549 10.8316 81.0781C9.01738 78.7953 7.40137 76.3502 6.00293 73.7676H93.9959Z" fill="#3C84B1"/>
<path d="M100 50C100 55.0881 99.24 59.9982 97.8264 64.6232C96.8438 67.8398 95.5467 70.9184 93.9689 73.8242C92.3576 76.793 65.1816 78.8736 50 78.8736C34.8184 78.8736 7.64238 76.793 6.0334 73.8242C5.39102 72.6463 4.79668 71.4395 4.25195 70.2049C1.51758 64.0273 0 57.1914 0 50C0 40.9729 2.39258 32.5059 6.57812 25.1953C15.1955 40.248 31.4141 50.3906 50 50.3906C68.5859 50.3906 84.8068 40.248 93.4219 25.1953C97.6074 32.5059 100 40.9729 100 50Z" fill="#80D8B9"/>
<path d="M54.1094 61.9281C28.3176 61.2713 2.39204 32.548 6.57681 25.2379C15.1938 10.1854 31.4122 0.0429688 50 0.0429688C68.6471 0.0429688 84.9098 10.2502 93.5057 25.3822C97.6395 32.6594 67.5811 62.2713 54.1094 61.9281Z" fill="#80D8B9"/>
<path d="M30.9354 24.8496H30.6377C29.3186 24.8496 28.2498 23.7799 28.2498 22.4615V22.1641H26.5477V22.4615C26.5477 23.7799 25.4779 24.8496 24.1596 24.8496H23.8613V26.5518H24.1596C25.4779 26.5518 26.5477 27.6205 26.5477 28.9396V29.2381H28.2498V28.9396C28.2498 27.6205 29.3186 26.5518 30.6377 26.5518H30.9354V24.8496Z" fill="white"/>
<path d="M50.1326 31.5977H49.835C48.5158 31.5977 47.4471 30.5279 47.4471 29.2096V28.9121H45.7449V29.2096C45.7449 30.5279 44.6752 31.5977 43.3568 31.5977H43.0586V33.2998H43.3568C44.6752 33.2998 45.7449 34.3686 45.7449 35.6877V35.9861H47.4471V35.6877C47.4471 34.3686 48.5158 33.2998 49.835 33.2998H50.1326V31.5977Z" fill="white"/>
<path d="M69.3689 17.7754H69.0713C67.7522 17.7754 66.6834 16.7057 66.6834 15.3873V15.0898H64.9812V15.3873C64.9812 16.7057 63.9115 17.7754 62.5932 17.7754H62.2949V19.4775H62.5932C63.9115 19.4775 64.9812 20.5463 64.9812 21.8654V22.1639H66.6834V21.8654C66.6834 20.5463 67.7522 19.4775 69.0713 19.4775H69.3689V17.7754Z" fill="white"/>
<g clip-path="url(#clip1_1986_52557)">
<path d="M63.2303 60.6459C65.2681 59.4357 67.4728 58.5316 69.7736 57.9626C71.3637 57.6009 72.93 57.4657 74.5082 57.9626C76.615 58.6504 77.5532 60.2444 77.9149 62.2957C77.9388 62.4348 77.8911 62.5938 78.0263 62.6932V64.8875C77.9098 65.3579 77.8287 65.8362 77.7838 66.3186C77.0195 70.002 75.5436 73.5007 73.4388 76.6186C72.5174 78.0547 71.2385 79.2268 69.7277 80.0198C68.2168 80.8129 66.5258 81.1997 64.8204 81.1424C63.4327 81.1068 62.0688 80.7733 60.8213 80.1645C60.8769 79.9816 61.0519 79.9379 61.187 79.8544C62.2962 79.1846 63.2741 78.3184 64.0731 77.2983C65.2742 75.7532 65.9684 73.8747 66.0607 71.9198C66.1879 69.5346 65.6036 67.2369 64.9198 64.971C64.4415 63.4976 63.8774 62.0534 63.2303 60.6459Z" fill="#C8BFDD"/>
<path d="M55.6568 81.25H55.3269L55.2036 81.1308C54.7676 80.9753 54.3156 80.8687 53.856 80.8127C51.6599 80.2423 49.7268 78.9338 48.3812 77.1068C47.0356 75.2799 46.3594 73.0457 46.466 70.7792C46.5766 69.1615 46.8686 67.5613 47.3366 66.0088C48.2827 62.7968 49.4991 59.7081 51.7094 57.1281C52.902 55.7328 54.3609 54.7429 56.2929 54.6992C56.2929 54.9536 56.2929 55.212 56.2929 55.4664V80.3715C56.2929 80.6378 56.3604 80.928 56.0822 81.1188C55.951 81.1546 55.7642 81.087 55.6568 81.25Z" fill="#F0F1FC"/>
<path d="M28.041 25.1113V25H50.8471C50.853 25.0355 50.853 25.0718 50.8471 25.1073L28.041 25.1113Z" fill="#99F7ED"/>
<path d="M21.9072 43.6235L28.0252 31.4671H45.7032C47.4165 31.4671 49.1298 31.4671 50.8432 31.4473L50.9187 31.5705C50.8126 31.6409 50.7307 31.7422 50.6842 31.8607C49.8573 33.4508 49.0305 35.0316 48.2036 36.6032C47.6193 37.7123 47.011 38.8055 46.4465 39.9345C45.8423 41.1747 45.1029 42.3474 44.5821 43.6315V47.8095C44.494 47.6482 44.4646 47.4613 44.4987 47.2807C44.4987 46.279 44.4589 45.2732 44.4987 44.2715C44.4987 43.7706 44.3675 43.6315 43.8626 43.6315C38.8458 43.6513 33.8291 43.6315 28.8123 43.6315C26.5026 43.6434 24.2049 43.6235 21.9072 43.6235Z" fill="#00D7D2"/>
<path d="M44.5738 47.8172C44.5738 46.4259 44.5738 45.0345 44.5738 43.6392C46.2275 43.6949 47.8812 43.6392 49.5389 43.7187C51.6299 43.83 53.7328 43.7466 55.8278 43.7466C55.9749 43.7466 56.1259 43.7466 56.2253 43.6074C56.3684 43.7625 56.3009 43.9533 56.3009 44.1282C56.3009 47.6529 56.3009 51.1776 56.3009 54.7024C54.3689 54.7461 52.9219 55.736 51.7174 57.1313C49.4992 59.7112 48.2828 62.8 47.3446 66.012C46.8766 67.5645 46.5846 69.1646 46.474 70.7823C46.3674 73.0488 47.0436 75.283 48.3892 77.11C49.7348 78.937 51.6679 80.2455 53.864 80.8159C54.3236 80.8719 54.7755 80.9785 55.2116 81.1339H44.7209C44.7209 80.8795 44.7209 80.6251 44.7209 80.3667C44.6772 75.97 44.7209 71.5694 44.6494 67.1688C44.5341 60.717 44.5858 54.2651 44.5738 47.8172Z" fill="#00B5CF"/>
<path d="M60.8212 80.1448C60.4969 80.1669 60.1823 80.2649 59.9029 80.4311C58.6959 80.9174 57.4036 81.1567 56.1025 81.1347C56.3808 80.9439 56.3132 80.6537 56.3132 80.3873V55.4823C56.3132 55.2279 56.3132 54.9695 56.3132 54.7151C57.8238 54.6674 59.0005 55.4068 60.0738 56.3489C61.3539 57.4739 62.2086 58.9169 63.0314 60.3838C63.0871 60.4752 63.1586 60.5587 63.2223 60.6462C63.8727 62.0469 64.4408 63.4844 64.9237 64.9514C65.6074 67.2173 66.1918 69.5031 66.0646 71.9002C65.9723 73.855 65.278 75.7336 64.0769 77.2787C63.278 78.2988 62.3 79.1649 61.1909 79.8348C61.0518 79.9183 60.8768 79.962 60.8212 80.1448Z" fill="#E3D7FD"/>
<path d="M50.8434 31.4558C49.1301 31.4558 47.4167 31.4757 45.7034 31.4757H28.0254C28.0254 29.3555 28.0254 27.2354 28.0254 25.1152H50.8355C50.8408 27.2248 50.8434 29.3383 50.8434 31.4558Z" fill="#80F5E9"/>
<path d="M56.2257 43.6249C56.1343 43.7719 55.9832 43.764 55.8282 43.764C53.7332 43.764 51.6303 43.8475 49.5393 43.7362C47.8816 43.6487 46.2279 43.7123 44.5742 43.6567C45.095 42.3726 45.8344 41.1999 46.4386 39.9597C46.9912 38.8307 47.6113 37.7375 48.1957 36.6284C49.0252 35.0383 49.852 33.4575 50.6763 31.8859C50.7228 31.7674 50.8047 31.6661 50.9108 31.5957C52.1537 34.3916 53.3993 37.1876 54.6475 39.9835C55.1882 41.1761 55.701 42.3925 56.2257 43.6249Z" fill="#009CB3"/>
<path d="M44.574 47.8174C44.574 54.2652 44.5343 60.7091 44.6257 67.1531C44.6893 71.5537 44.6536 75.9543 44.6973 80.3509C44.6973 80.6093 44.6973 80.8637 44.6973 81.1182C40.2768 81.1182 35.855 81.1182 31.4318 81.1182C28.4186 81.1182 25.4013 81.1182 22.3881 81.1182C21.9906 81.1182 21.8594 81.0148 21.8594 80.5974C21.8594 68.3589 21.8594 56.1164 21.8594 43.8699C21.8594 43.7785 21.8594 43.6871 21.8793 43.5996C24.177 43.5996 26.4747 43.6195 28.7724 43.6235C33.7892 43.6235 38.8059 43.6235 43.8227 43.6235C44.3276 43.6235 44.4747 43.7626 44.4588 44.2635C44.423 45.2652 44.4588 46.2511 44.4588 47.2728C44.4303 47.4622 44.4712 47.6557 44.574 47.8174Z" fill="#80F5E9"/>
</g>
</g>
<defs>
<clipPath id="clip0_1986_52557">
<rect width="100" height="100" fill="white"/>
</clipPath>
<clipPath id="clip1_1986_52557">
<rect width="56.1506" height="56.25" fill="white" transform="translate(21.875 25)"/>
</clipPath>
</defs>
</svg>
