<svg width="21" height="21" viewBox="0 0 21 21" fill="none" xmlns="http://www.w3.org/2000/svg">
<path fill-rule="evenodd" clip-rule="evenodd" d="M20.176 1.98419C19.7519 0.71053 18.5355 0.21181 17.6417 0.0627304C17.1668 -0.0164686 16.6863 -0.018504 16.2664 0.0443847C15.904 0.0986866 15.3816 0.230475 15.0205 0.590894C13.7005 1.90851 13.0242 3.8905 12.668 5.40419C12.4847 6.18313 12.3756 6.88609 12.3121 7.39458C12.2803 7.64947 12.2597 7.85716 12.247 8.00311C12.2406 8.07612 12.2362 8.1338 12.2333 8.17434L12.2301 8.2221L12.2292 8.23595L12.2289 8.24029L12.2289 8.2418L12.2288 8.2424C12.2288 8.24265 12.2288 8.24288 13.2272 8.2996L12.2288 8.24288L12.184 9.03069L12.9398 9.25743L17.9398 10.7574L18.7628 11.0043L19.1308 10.2279L18.2272 9.7996C19.1308 10.2279 19.1309 10.2277 19.131 10.2274L19.1313 10.2269L19.132 10.2254L19.1339 10.2213L19.1399 10.2084L19.1603 10.1642C19.1773 10.1266 19.2013 10.0732 19.2307 10.0053C19.2897 9.86954 19.371 9.67528 19.4645 9.43343C19.6509 8.95097 19.888 8.27265 20.0908 7.48693C20.4863 5.95448 20.7963 3.84706 20.176 1.98419ZM17.6487 8.58201L14.3048 7.57885C14.3628 7.12814 14.4592 6.52391 14.6148 5.86227C14.9445 4.46132 15.5013 2.9762 16.3772 2.06378C16.4059 2.0541 16.4643 2.03707 16.5627 2.02231C16.768 1.99157 17.0375 1.98958 17.3127 2.03548C17.9189 2.13659 18.2025 2.38826 18.2784 2.61606C18.7122 3.91893 18.5222 5.56126 18.1542 6.98711C17.9927 7.61284 17.8055 8.16492 17.6487 8.58201ZM1.61364 3.97375C2.26161 2.7361 3.58402 2.41751 4.54207 2.41596C5.0466 2.41515 5.54328 2.49676 5.9651 2.63601C6.33263 2.75734 6.83964 2.98581 7.13959 3.41607C8.24747 5.00522 8.60799 6.91241 8.71121 8.34702C8.76364 9.07564 8.75159 9.71065 8.72637 10.1654C8.71373 10.3933 8.6977 10.5775 8.68446 10.7072C8.67784 10.7721 8.67191 10.8235 8.66743 10.8602L8.66191 10.9038L8.66014 10.917L8.65953 10.9214L8.6593 10.9231L8.65921 10.9238C8.65916 10.9241 8.65912 10.9244 7.6689 10.7849L8.65912 10.9244L8.55302 11.6777L7.79871 11.7764L2.32993 12.4924L1.52527 12.5978L1.25653 11.832L2.20011 11.5009C1.25653 11.832 1.25643 11.8317 1.25631 11.8314L1.25606 11.8307L1.25546 11.8289L1.2539 11.8244L1.24935 11.8112L1.23494 11.7679C1.2231 11.7318 1.20697 11.6812 1.18765 11.6174C1.14903 11.4898 1.0975 11.3086 1.04197 11.083C0.931198 10.6328 0.80292 9.99939 0.730787 9.25736C0.588246 7.79105 0.655621 5.80362 1.61364 3.97375ZM2.93493 10.3961L6.73706 9.89835C6.7528 9.5243 6.75571 9.0373 6.71637 8.49055C6.62617 7.23696 6.32107 5.7751 5.54052 4.62043C5.51479 4.60572 5.45336 4.57323 5.33813 4.5352C5.12664 4.46538 4.84324 4.41548 4.54531 4.41596C3.89845 4.41701 3.52643 4.63222 3.3855 4.90139C2.6802 6.24856 2.59784 7.79278 2.7214 9.06386C2.77183 9.58263 2.85503 10.0398 2.93493 10.3961ZM11.069 17.3062C10.6531 16.7686 10.4494 16.0733 10.4441 15.2836C10.4367 14.1865 10.6064 13.1066 10.7713 12.3165C10.8545 11.9178 10.9383 11.5844 11.0018 11.3489C11.0336 11.231 11.0604 11.1372 11.0798 11.0715C11.0894 11.0387 11.0972 11.0128 11.1028 10.9945L11.1095 10.9726L11.1116 10.966L11.1123 10.9638L11.1125 10.963L11.1126 10.9627C11.1127 10.9625 11.1127 10.9624 12.0664 11.2632L11.1127 10.9624L11.4074 10.0281L12.3476 10.3035L17.3574 11.7712L18.5755 12.1281L17.9434 13.2289L17.0762 12.7309L17.9434 13.2289L17.9433 13.229L17.9431 13.2294L17.9423 13.2308L17.9394 13.2359L17.928 13.2558L17.8844 13.3314C17.8465 13.3969 17.7916 13.4918 17.7233 13.6093C17.5867 13.8444 17.396 14.1709 17.1795 14.5365C16.7493 15.2631 16.2075 16.1614 15.7856 16.8028C15.0933 17.8555 13.8457 18.4395 12.6751 18.2527C12.0694 18.156 11.4895 17.8496 11.069 17.3062ZM15.5686 13.3313L15.4585 13.5176C15.0295 14.2422 14.5083 15.1052 14.1146 15.7039C13.8184 16.1542 13.3214 16.3305 12.9903 16.2777C12.8451 16.2545 12.7349 16.191 12.6508 16.0823C12.5623 15.9679 12.4471 15.7291 12.444 15.2702C12.438 14.3692 12.5794 13.4423 12.7291 12.725C12.7444 12.6517 12.7598 12.5808 12.7749 12.5128L15.5686 13.3313ZM8.15073 18.5183C7.69924 19.9148 6.48515 20.4474 5.41279 20.4019C4.43753 20.3605 3.27134 19.8157 2.8854 18.7081C2.64474 18.0175 2.39711 17.0595 2.21449 16.3018C2.12179 15.9171 2.04336 15.5736 1.98809 15.3261C1.96043 15.2023 1.93851 15.1022 1.92344 15.0329L1.90609 14.9526L1.90152 14.9312L1.90031 14.9255L1.89998 14.9239L1.89988 14.9235L1.89985 14.9233L2.87805 14.7157L1.89983 14.9232L1.67766 13.8761L2.73747 13.7256L7.68677 13.0229L8.84922 12.8578L8.82717 14.0317L7.82735 14.0129C8.82717 14.0317 8.82717 14.0318 8.82716 14.032L8.82716 14.0323L8.82714 14.0331L8.8271 14.0353L8.82695 14.0423L8.82635 14.0665C8.82581 14.0871 8.82497 14.1164 8.82368 14.1536C8.82113 14.2282 8.81683 14.3349 8.80982 14.4679C8.79581 14.7334 8.77084 15.1056 8.72679 15.537C8.63996 16.3873 8.47421 17.5177 8.15073 18.5183ZM6.75266 15.1756L4.09215 15.5533C4.11336 15.6434 4.13563 15.737 4.15882 15.8332C4.34054 16.5872 4.56875 17.4609 4.77403 18.05C4.78426 18.0794 4.82926 18.1615 4.97245 18.2491C5.11338 18.3354 5.30204 18.3954 5.49763 18.4037C5.69129 18.4119 5.85121 18.3685 5.96496 18.2984C6.06623 18.236 6.17545 18.1265 6.24771 17.903C6.50738 17.0998 6.6557 16.1314 6.73714 15.3338C6.74263 15.28 6.7478 15.2272 6.75266 15.1756Z" fill="white"/>
</svg>
