<svg width="100" height="100" viewBox="0 0 100 100" fill="none" xmlns="http://www.w3.org/2000/svg">
<g clip-path="url(#clip0_1986_52493)">
<path d="M100 50C100 77.6146 77.6146 100 50 100C22.3854 100 0 77.6146 0 50C0 22.3854 22.3854 0 50 0C77.6146 0 100 22.3854 100 50Z" fill="#80D8B9"/>
<path d="M100 50C100 55.0881 99.24 59.9982 97.8264 64.6232C96.8438 67.8398 95.5467 70.9184 93.9689 73.8242C92.3576 76.793 65.1816 79.7455 50 79.7455C34.8184 79.7455 7.64238 76.793 6.0334 73.8242C5.39102 72.6463 4.79668 71.4395 4.25195 70.2049C1.51758 64.0273 0 57.1914 0 50C0 40.9729 2.39258 32.5059 6.57812 25.1953C15.1955 40.248 31.4141 50.3906 50 50.3906C68.5859 50.3906 84.8068 40.248 93.4219 25.1953C97.6074 32.5059 100 40.9729 100 50Z" fill="#80D8B9"/>
<path d="M93.9969 73.7695C92.5984 76.3521 90.9824 78.7973 89.1682 81.0801C87.5203 83.1568 85.7074 85.0977 83.7543 86.8853C74.86 95.0297 63.01 100 50.0004 100C36.9908 100 25.1408 95.0297 16.2465 86.8853C14.2934 85.0977 12.4805 83.1568 10.8326 81.0801C9.01836 78.7973 7.40234 76.3521 6.00391 73.7695H93.9969Z" fill="#3C84B1"/>
<path d="M73.7355 93.4039V67.3111C73.7355 63.7418 70.8316 60.8379 67.2623 60.8379H60.7891V65.1533H67.2623C68.4521 65.1533 69.4201 66.1213 69.4201 67.3111V93.4037C69.4201 94.2756 69.5936 95.1115 69.9064 95.8779C71.2385 95.2992 72.5422 94.6668 73.8109 93.9785C73.7633 93.7943 73.7355 93.6021 73.7355 93.4039Z" fill="#22273B"/>
<path d="M78.0508 91.3955C79.55 90.3775 80.9895 89.2789 82.3662 88.1084V56.5217L78.0508 47.8906V91.3955Z" fill="#22273B"/>
<path d="M60.7891 34.9434V39.259H73.7355L69.4201 34.9434H60.7891Z" fill="#9ABDC9"/>
<path d="M73.7354 34.9434H69.4199V56.5209H82.3664V43.5744C82.3664 38.8152 78.4945 34.9434 73.7354 34.9434Z" fill="#5A637B"/>
<path d="M41.0092 99.192C43.3498 99.617 45.7479 99.8768 48.1898 99.9637H51.8113C56.4295 99.7992 60.8881 99.0102 65.1049 97.6754V71.6252L24.1074 62.9941L41.0092 99.192Z" fill="#4E5262"/>
<path d="M17.6338 88.1074C24.2764 93.7549 32.4129 97.6967 41.3691 99.2553V62.9941L17.6338 71.6252V88.1074Z" fill="#5A637B"/>
<path d="M65.1049 71.6256V26.3125H41.3695L24.1074 48.9691L41.3695 71.6256H65.1049Z" fill="#737B97"/>
<path d="M17.6338 26.3125H41.3691V71.6254H17.6338V26.3125Z" fill="#80A5AF"/>
<path d="M56.4736 45.7322V34.9434H41.3693L32.7383 54.3633L56.4736 45.7322Z" fill="#BDF3FF"/>
<path d="M41.3689 34.9434H26.2646V45.7322L41.3689 54.3633V34.9434Z" fill="white"/>
<path d="M56.4736 45.7324H41.3693L32.7383 55.4424L41.3693 65.1521H56.4736V45.7324Z" fill="#80D8B9"/>
<path d="M26.2646 45.7324H41.3689V65.1521H26.2646V45.7324Z" fill="#2FC28D"/>
</g>
<defs>
<clipPath id="clip0_1986_52493">
<rect width="100" height="100" fill="white"/>
</clipPath>
</defs>
</svg>
