<svg width="100" height="100" viewBox="0 0 100 100" fill="none" xmlns="http://www.w3.org/2000/svg">
<path d="M54.1094 61.9121C28.3176 61.2549 2.39204 32.5192 6.57681 25.2059C15.1938 10.1468 31.4122 0 50 0C68.6471 0 84.9098 10.2117 93.5057 25.3503C97.6395 32.6306 67.5811 62.2554 54.1094 61.9121Z" fill="#80D8B9"/>
<path d="M100 50.0225C100 55.1128 99.24 60.0251 97.8264 64.6521C96.8438 67.8701 93.9689 73.8571 93.9689 73.8571C59.7406 86.9231 0 57.217 0 50.0225C0 40.9914 2.39258 32.5208 6.57812 25.207C15.1955 40.2663 31.4141 50.4133 50 50.4133C68.5859 50.4133 84.8068 40.2663 93.4219 25.207C97.6074 32.5208 100 40.9914 100 50.0225Z" fill="#80D8B9"/>
<path d="M93.9965 73.8008C92.5981 76.3845 90.9821 78.8307 89.1678 81.1145C87.5199 83.1922 85.7071 85.1338 83.7539 86.9223C75.9713 94.0518 65.926 98.7501 54.8207 99.8133C53.2342 99.9651 54.7969 73.8008 54.7969 73.8008H93.9965Z" fill="#5B3FBC"/>
<path d="M27.3984 71.1502V46.8457H27.3982L25.8451 47.7291C23.8965 48.8376 21.5721 49.4234 19.1238 49.4234C16.6754 49.4234 14.3512 48.8376 12.4023 47.7291L10.8492 46.8457L9.29609 47.7291C7.34746 48.8376 5.02305 49.4234 2.57461 49.4234H0.00761719C0.00527344 49.6227 0 49.8214 0 50.0213C0 53.4198 0.34043 56.7387 0.985937 59.9469L27.3984 71.1502Z" fill="#80D8B9"/>
<path d="M30.9354 24.8195H30.6377C29.3186 24.8195 28.2498 23.7493 28.2498 22.4304V22.1328H26.5477V22.4304C26.5477 23.7493 25.4779 24.8195 24.1596 24.8195H23.8613V26.5224H24.1596C25.4779 26.5224 26.5477 27.5916 26.5477 28.9113V29.2099H28.2498V28.9113C28.2498 27.5916 29.3186 26.5224 30.6377 26.5224H30.9354V24.8195Z" fill="white"/>
<path d="M50.1326 31.5695H49.835C48.5158 31.5695 47.4471 30.4993 47.4471 29.1804V28.8828H45.7449V29.1804C45.7449 30.4993 44.6752 31.5695 43.3568 31.5695H43.0586V33.2724H43.3568C44.6752 33.2724 45.7449 34.3416 45.7449 35.6613V35.9599H47.4471V35.6613C47.4471 34.3416 48.5158 33.2724 49.835 33.2724H50.1326V31.5695Z" fill="white"/>
<path d="M69.3689 17.7414H69.0713C67.7522 17.7414 66.6834 16.6712 66.6834 15.3523V15.0547H64.9812V15.3523C64.9812 16.6712 63.9115 17.7414 62.5932 17.7414H62.2949V19.4443H62.5932C63.9115 19.4443 64.9812 20.5135 64.9812 21.8332V22.1318H66.6834V21.8332C66.6834 20.5135 67.7522 19.4443 69.0713 19.4443H69.3689V17.7414Z" fill="white"/>
<path d="M82.8124 54.6689H67.1874L59.3749 54.1621L50.0014 60.9216L36.5197 58.5558L0.173828 54.1621C2.29902 79.8301 23.7959 99.999 50.0014 99.999C76.2068 99.999 97.7037 79.8301 99.8289 54.1621L82.8124 54.6689Z" fill="#80D8B9"/>
<path d="M93.9959 73.7578C92.5975 76.3416 90.9814 78.7877 89.1672 81.0715C87.5193 83.1492 85.7064 85.0909 83.7533 86.8793C74.859 95.0272 63.009 99.9999 49.9994 99.9999C36.9898 99.9999 25.1398 95.0272 16.2455 86.8793C14.2924 85.0909 12.4795 83.1492 10.8316 81.0715C9.01738 78.7877 7.40137 76.3416 6.00293 73.7578H93.9959Z" fill="#3C84B1"/>
<path d="M59.4126 73.9207L27.0958 73.8666L27.1411 46.6925L43.32 34.6333L59.4581 46.7465L59.4126 73.9207Z" fill="#3DA2FF"/>
<path d="M37.7666 55.5742L49.0605 55.4855L49.2031 73.6621L37.9092 73.7507L37.7666 55.5742Z" fill="#024C60"/>
<path d="M65.3018 97.6559C73.9143 94.8891 81.5076 89.8502 87.3787 83.2434V30.5H65.3018V38.6739L69.3699 40.7089L65.3018 42.744V46.8479L69.3699 48.883L65.3018 50.9181V55.022L69.3699 57.057L65.3018 59.0921V63.196L69.3699 65.2311L65.3018 67.2662V71.3701L69.3699 73.4052L65.3018 75.4402V79.5442L69.3699 81.5792L65.3018 83.6143V87.7182L69.3699 89.7533L65.3018 91.7884V97.6559Z" fill="#FACC14"/>
<path d="M65.3018 87.7207H77.5064V91.7906H65.3018V87.7207Z" fill="#383D4F"/>
<path d="M65.3018 79.5449H73.4383V83.6149H65.3018V79.5449Z" fill="#383D4F"/>
<path d="M65.3018 71.3711H77.5064V75.441H65.3018V71.3711Z" fill="#383D4F"/>
<path d="M65.3018 63.1973H73.4383V67.2672H65.3018V63.1973Z" fill="#383D4F"/>
<path d="M65.3018 55.0234H77.5064V59.0934H65.3018V55.0234Z" fill="#383D4F"/>
<path d="M65.3018 46.8496H73.4383V50.9195H65.3018V46.8496Z" fill="#383D4F"/>
<path d="M65.3018 38.6758H77.5064V42.7457H65.3018V38.6758Z" fill="#383D4F"/>
</svg>
