<svg width="52" height="52" viewBox="0 0 52 52" fill="none" xmlns="http://www.w3.org/2000/svg">
<path d="M6.93327 43.6766C2.63057 39.0378 0 32.8261 0 26C0 11.6406 11.6406 0 26 0C40.3594 0 52 11.6406 52 26C52 32.8261 49.3694 39.0378 45.0667 43.6766C44.8816 43.8762 7.11841 43.8762 6.93327 43.6766Z" fill="#FF7117"/>
<path d="M47.3018 25.0239C47.3018 37.3276 37.3276 47.3018 25.0239 47.3018C12.7202 47.3018 2.74609 37.3276 2.74609 25.0239C2.74609 12.7202 12.7202 2.74609 25.0239 2.74609C37.3276 2.74609 47.3018 12.7202 47.3018 25.0239Z" fill="#FF8835"/>
<path d="M45.0668 6.09375V43.6766C40.3184 48.7961 33.5334 52 26.0001 52C19.9505 52 14.3836 49.9339 9.96634 46.4688C9.47366 46.0824 9.18359 45.4927 9.18359 44.8666V6.09375C9.18359 5.53282 9.63829 5.07812 10.1992 5.07812H44.0512C44.6122 5.07812 45.0668 5.53282 45.0668 6.09375Z" fill="#E5F2FD"/>
<path d="M11.04 5.07812C10.479 5.07812 10.0243 5.53282 10.0243 6.09375V46.514C8.91924 45.6521 7.88544 44.7028 6.93359 43.6767V6.09375C6.93359 5.53282 7.38829 5.07812 7.94922 5.07812H11.04Z" fill="#BDE2FD"/>
<path d="M33.3654 14.6348L38.0831 15.8988L33.3271 33.6484L30.4193 30.7663L29.2669 31.0696C29.1206 31.1081 28.9873 30.9742 29.0265 30.8281L33.3654 14.6348ZM46.2593 15.2027L41.5118 16.4748L45.5274 31.4609C45.5762 31.6428 45.8033 31.7043 45.937 31.5716L46.7495 30.7663L50.7088 31.8084L46.2593 15.2027Z" fill="#00915D"/>
<path d="M45.95 31.5552L43.8385 33.6479L38.5813 14.0275H41.2536L45.95 31.5552ZM29.2717 31.0671L26.457 31.8078L31.7142 12.1875L34.1552 12.8416L29.2717 31.0671Z" fill="#007B4E"/>
<path d="M51.3899 15.7109C50.9943 16.3891 50.7842 17.1594 50.7807 17.9445C50.7736 19.5358 49.9087 21.0183 48.5271 21.8078C47.8455 22.1973 47.2784 22.7594 46.8828 23.4375C46.0777 24.8177 44.5973 25.6636 42.9994 25.6564C42.2143 25.6529 41.4422 25.8561 40.7605 26.2456C40.7577 26.2472 40.755 26.2488 40.7522 26.2503C40.2224 26.5515 39.5668 26.5464 39.0379 26.2436C39.0274 26.2376 39.0171 26.2316 39.0066 26.2255C38.3285 25.8299 37.5581 25.6198 36.773 25.6163C35.1751 25.6092 33.7025 24.7501 32.9098 23.3628C32.5285 22.6954 31.9818 22.1378 31.3227 21.7435C29.9389 20.9157 29.0612 19.452 29.0612 17.8395V17.835C29.0647 17.0499 28.8615 16.2778 28.472 15.5961C27.6793 14.2087 27.6869 12.5039 28.492 11.1237C28.8874 10.4458 29.0977 9.67457 29.1013 8.8899C29.1085 7.29211 29.9675 5.81946 31.3549 5.02666C32.0366 4.63717 32.6037 4.07512 32.9993 3.39699C33.8044 2.01675 35.2847 1.17094 36.8826 1.17805H37.0094C37.7487 1.17805 38.4674 0.965582 39.1082 0.596504C39.1137 0.593254 39.1193 0.590106 39.1249 0.586856C39.6562 0.283895 40.3138 0.287043 40.8445 0.59102C40.8547 0.596911 40.8651 0.602903 40.8753 0.608793C41.5572 1.00661 42.3324 1.21685 43.1219 1.21807C44.7299 1.22061 46.1852 2.13487 47.0008 3.5209C47.3882 4.17943 47.9382 4.72797 48.5984 5.1139C49.9554 5.90721 50.8209 7.32969 50.8209 8.90168V8.99928C50.8173 9.78436 51.0205 10.5565 51.41 11.2382C52.2027 12.6259 52.1951 14.3307 51.3899 15.7109Z" fill="#1FB480"/>
<path d="M39.4343 25.6165C40.0596 25.6194 40.6754 25.7531 41.2429 26.0074C41.0779 26.0768 40.9168 26.1563 40.7603 26.2457C39.373 27.0384 37.6681 27.0308 36.2878 26.2257C35.6097 25.8301 34.8394 25.62 34.0543 25.6165C32.4564 25.6094 30.9837 24.7503 30.191 23.363C29.8016 22.6813 29.2395 22.1142 28.5614 21.7186C27.1811 20.9135 26.3353 19.4331 26.3424 17.8352C26.346 17.0502 26.1428 16.278 25.7533 15.5963C24.9606 14.2089 24.9682 12.504 25.7733 11.1238C26.1689 10.4456 26.379 9.67529 26.3825 8.89022C26.3896 7.29233 27.2487 5.81968 28.636 5.02698C29.3177 4.63749 29.8848 4.07544 30.2804 3.39731C31.0855 2.01708 32.5659 1.17126 34.1638 1.17837C34.9488 1.18193 35.721 0.978701 36.4027 0.589209C37.7901 -0.203486 39.495 -0.195869 40.8752 0.609217C41.0132 0.689756 41.1552 0.762576 41.3003 0.827576C40.7461 1.06097 40.1488 1.18112 39.5438 1.17837C37.9459 1.17126 36.4657 2.01708 35.6605 3.39731C35.2649 4.07544 34.6978 4.63749 34.0161 5.02698C32.6287 5.81968 31.7696 7.29244 31.7625 8.89022C31.759 9.67529 31.5489 10.4456 31.1533 11.1238C30.3483 12.504 30.3405 14.2089 31.1333 15.5963C31.5228 16.278 31.7261 17.0502 31.7225 17.8352C31.7154 19.4331 32.5612 20.9134 33.9414 21.7186C34.6196 22.1142 35.1816 22.6813 35.5711 23.363C36.3638 24.7503 37.8365 25.6093 39.4343 25.6165Z" fill="#00A86D"/>
<path d="M47.3164 13.4181C47.3164 17.9852 43.811 21.7337 39.3438 22.1196C39.0927 22.1414 38.8387 21.6679 38.582 21.6679C38.3254 21.6679 38.0714 22.1414 37.8203 22.1196C33.3531 21.7337 29.8477 17.9852 29.8477 13.418C29.8477 8.59405 33.7581 4.68359 38.582 4.68359C43.4058 4.6837 47.3164 8.59416 47.3164 13.4181Z" fill="#00915D"/>
<path d="M38.7183 19.0675C37.0446 19.1033 35.3596 18.4825 34.0825 17.2054C31.9012 15.0241 31.5988 11.5925 33.3649 9.06332L38.1002 2.2822C38.334 1.94745 40.3008 19.0337 38.7183 19.0675Z" fill="#4BCD5C"/>
<path d="M43.0813 17.2055C41.785 18.5018 40.0684 19.1219 38.3701 19.0656C37.5607 19.0388 35.3752 15.9675 35.5227 11.6193C35.659 7.60287 38.1006 2.28231 38.1006 2.28231C38.3343 1.94756 38.8298 1.94756 39.0635 2.28231L43.7988 9.06344C45.5649 11.5926 45.2626 15.0243 43.0813 17.2055Z" fill="#91DE93"/>
<path d="M41.8055 13.3252L39.3444 15.7864V22.1191C39.0934 22.1408 38.8394 22.1519 38.5827 22.1519C38.3261 22.1519 38.0721 22.1408 37.821 22.1191V15.7865L35.3598 13.3253C35.0623 13.0278 35.0623 12.5455 35.3598 12.248C35.6574 11.9506 36.1396 11.9506 36.4371 12.248L37.821 13.6319V9.14062C37.821 8.71995 38.1619 8.37891 38.5827 8.37891C39.0035 8.37891 39.3444 8.71995 39.3444 9.14062V13.6318L40.7282 12.248C41.0258 11.9506 41.508 11.9506 41.8055 12.248C42.103 12.5455 42.103 13.0277 41.8055 13.3252Z" fill="#007B4E"/>
<path d="M33.9372 48.4966H18.5588C18.138 48.4966 17.7971 48.1556 17.7971 47.7349C17.7971 47.3142 18.138 46.9732 18.5588 46.9732H33.9372C34.358 46.9732 34.6989 47.3142 34.6989 47.7349C34.6989 48.1556 34.3579 48.4966 33.9372 48.4966ZM37.9168 44.2484C37.9168 43.8277 37.5759 43.4867 37.1551 43.4867H14.1205C13.6997 43.4867 13.3588 43.8277 13.3588 44.2484C13.3588 44.669 13.6997 45.0101 14.1205 45.0101H37.1552C37.5759 45.0101 37.9168 44.669 37.9168 44.2484ZM37.9168 40.7619C37.9168 40.3413 37.5759 40.0002 37.1551 40.0002H14.1205C13.6997 40.0002 13.3588 40.3413 13.3588 40.7619C13.3588 41.1826 13.6997 41.5236 14.1205 41.5236H37.1552C37.5759 41.5236 37.9168 41.1826 37.9168 40.7619ZM37.9168 37.2754C37.9168 36.8547 37.5759 36.5137 37.1551 36.5137H14.1205C13.6997 36.5137 13.3588 36.8547 13.3588 37.2754C13.3588 37.6961 13.6997 38.0371 14.1205 38.0371H37.1552C37.5759 38.0371 37.9168 37.6961 37.9168 37.2754ZM18.8344 30.4693C18.8344 30.0486 18.4935 29.7076 18.0727 29.7076H12.8281C12.4074 29.7076 12.0664 30.0486 12.0664 30.4693C12.0664 30.89 12.4074 31.231 12.8281 31.231H18.0727C18.4934 31.231 18.8344 30.89 18.8344 30.4693ZM21.4456 26.9827C21.4456 26.5621 21.1047 26.221 20.6839 26.221H12.8281C12.4074 26.221 12.0664 26.5621 12.0664 26.9827C12.0664 27.4034 12.4074 27.7445 12.8281 27.7445H20.6839C21.1046 27.7445 21.4456 27.4034 21.4456 26.9827ZM21.4456 23.4963C21.4456 23.0756 21.1047 22.7346 20.6839 22.7346H12.8281C12.4074 22.7346 12.0664 23.0756 12.0664 23.4963C12.0664 23.917 12.4074 24.258 12.8281 24.258H20.6839C21.1046 24.258 21.4456 23.917 21.4456 23.4963ZM21.4456 20.0098C21.4456 19.5891 21.1047 19.248 20.6839 19.248H12.8281C12.4074 19.248 12.0664 19.5891 12.0664 20.0098C12.0664 20.4304 12.4074 20.7715 12.8281 20.7715H20.6839C21.1046 20.7715 21.4456 20.4304 21.4456 20.0098Z" fill="#93D0FD"/>
<path d="M18.8363 11.1719V15.2344C18.8363 15.7953 18.3816 16.25 17.8207 16.25H13.2031C12.6422 16.25 12.1875 15.7953 12.1875 15.2344V11.1719C12.1875 10.6109 12.6422 10.1562 13.2031 10.1562H17.8207C18.3815 10.1562 18.8363 10.6109 18.8363 11.1719Z" fill="#4BCD5C"/>
<path d="M22.342 11.1719V15.2344C22.342 15.7953 21.8873 16.25 21.3264 16.25H16.8555C16.2945 16.25 15.8398 15.7953 15.8398 15.2344V11.1719C15.8398 10.6109 16.2945 10.1562 16.8555 10.1562H21.3264C21.8873 10.1562 22.342 10.6109 22.342 11.1719Z" fill="#74D579"/>
</svg>
