<svg width="100" height="100" viewBox="0 0 100 100" fill="none" xmlns="http://www.w3.org/2000/svg">
<g clip-path="url(#clip0_1986_52436)">
<path d="M100 50C100 77.6146 77.6146 100 50 100C22.3854 100 0 77.6146 0 50C0 22.3854 22.3854 0 50 0C77.6146 0 100 22.3854 100 50Z" fill="#80D8B9"/>
<path d="M100 50C100 55.0881 99.24 59.9982 97.8264 64.6232C96.8438 67.8398 95.5467 70.9184 93.9689 73.8242C92.3576 76.793 65.1816 78.4633 50 78.4633C34.8184 78.4633 7.64238 76.793 6.0334 73.8242C5.39102 72.6463 4.79668 71.4395 4.25195 70.2049C1.51758 64.0273 0 57.1914 0 50C0 40.9729 2.39258 32.5059 6.57812 25.1953C15.1955 40.248 31.4141 50.3906 50 50.3906C68.5859 50.3906 84.8068 40.248 93.4219 25.1953C97.6074 32.5059 100 40.9729 100 50Z" fill="#80D8B9"/>
<path d="M93.9969 73.7695C92.5984 76.3521 90.9824 78.7973 89.1682 81.0801C87.5203 83.1568 85.7074 85.0977 83.7543 86.8853C74.86 95.0297 63.01 100 50.0004 100C36.9908 100 25.1408 95.0297 16.2465 86.8853C14.2934 85.0977 12.4805 83.1568 10.8326 81.0801C9.01836 78.7973 7.40234 76.3521 6.00391 73.7695H93.9969Z" fill="#3C84B1"/>
<path d="M30.9354 24.8477H30.6377C29.3186 24.8477 28.2498 23.7779 28.2498 22.4596V22.1621H26.5477V22.4596C26.5477 23.7779 25.4779 24.8477 24.1596 24.8477H23.8613V26.5498H24.1596C25.4779 26.5498 26.5477 27.6186 26.5477 28.9377V29.2361H28.2498V28.9377C28.2498 27.6186 29.3186 26.5498 30.6377 26.5498H30.9354V24.8477Z" fill="white"/>
<path d="M50.1326 31.5957H49.835C48.5158 31.5957 47.4471 30.526 47.4471 29.2076V28.9102H45.7449V29.2076C45.7449 30.526 44.6752 31.5957 43.3568 31.5957H43.0586V33.2979H43.3568C44.6752 33.2979 45.7449 34.3666 45.7449 35.6857V35.9842H47.4471V35.6857C47.4471 34.3666 48.5158 33.2979 49.835 33.2979H50.1326V31.5957Z" fill="white"/>
<path d="M69.3689 17.7734H69.0713C67.7522 17.7734 66.6834 16.7037 66.6834 15.3854V15.0879H64.9812V15.3854C64.9812 16.7037 63.9115 17.7734 62.5932 17.7734H62.2949V19.4756H62.5932C63.9115 19.4756 64.9812 20.5443 64.9812 21.8635V22.1619H66.6834V21.8635C66.6834 20.5443 67.7522 19.4756 69.0713 19.4756H69.3689V17.7734Z" fill="white"/>
<path d="M82.2512 45.9264L73.7107 34.5879H57.585V53.4854L82.2512 45.9264Z" fill="#1C5E70"/>
<path d="M57.585 45.9258L66.1254 73.768H82.2512V45.9258H57.585Z" fill="#009F8B"/>
<path d="M41.459 34.5879V40.257L49.9994 45.9264L56.2986 40.257L49.9994 34.5879H41.459Z" fill="#23D089"/>
<path d="M57.5854 34.5879H50V53.4854L66.1258 45.9264L57.5854 34.5879Z" fill="#009F8B"/>
<path d="M42.4404 45.9258L49.9994 73.768H66.1252V45.9258H42.4404Z" fill="#D0BF23"/>
<path d="M17.748 53.4848V73.768H25.307L35.3855 45.9258L17.748 53.4848Z" fill="#EDC948"/>
<path d="M50 53.4848L32.3623 45.9258L42.441 73.768H50V53.4848Z" fill="#EDC948"/>
<path d="M25.3066 49.707H42.4402V73.7697H25.3066V49.707Z" fill="#024C60"/>
<path d="M49.9996 45.9262L33.8738 37.1074L17.748 45.9262V53.4852H49.9996V45.9262Z" fill="#FAEB67"/>
<path d="M41.4592 34.5879H26.2885L17.748 45.9264H49.9996L41.4592 34.5879Z" fill="#EDDD48"/>
<path d="M49.9992 9.26562L44.834 19.5963L49.9992 29.927C55.7047 29.927 60.3299 25.3018 60.3299 19.5963C60.3299 13.8908 55.7047 9.26562 49.9992 9.26562Z" fill="#80D8B9"/>
<path d="M39.6689 19.5963C39.6689 25.3018 44.2941 29.927 49.9996 29.927V9.26562C44.2941 9.26562 39.6689 13.8908 39.6689 19.5963Z" fill="#80D8B9"/>
</g>
<defs>
<clipPath id="clip0_1986_52436">
<rect width="100" height="100" fill="white"/>
</clipPath>
</defs>
</svg>
