<svg width="100" height="100" viewBox="0 0 100 100" fill="none" xmlns="http://www.w3.org/2000/svg">
<g clip-path="url(#clip0_1986_52514)">
<path d="M100 50C100 77.6146 77.6146 100 50 100C22.3854 100 0 77.6146 0 50C0 22.3854 22.3854 0 50 0C77.6146 0 100 22.3854 100 50Z" fill="#80D8B9"/>
<path d="M100 50C100 55.0881 99.24 59.9982 97.8264 64.6232C96.8438 67.8398 95.5467 70.9184 93.9689 73.8242C92.3576 76.793 65.1816 78.8736 50 78.8736C34.8184 78.8736 7.64238 76.793 6.0334 73.8242C5.39102 72.6463 4.79668 71.4395 4.25195 70.2049C1.51758 64.0273 0 57.1914 0 50C0 40.9729 2.39258 32.5059 6.57812 25.1953C15.1955 40.248 31.4141 50.3906 50 50.3906C68.5859 50.3906 84.8068 40.248 93.4219 25.1953C97.6074 32.5059 100 40.9729 100 50Z" fill="#80D8B9"/>
<path d="M93.9969 73.7695C92.5984 76.3521 90.9824 78.7973 89.1682 81.0801C87.5203 83.1568 85.7074 85.0977 83.7543 86.8853C74.86 95.0297 63.01 100 50.0004 100C36.9908 100 25.1408 95.0297 16.2465 86.8853C14.2934 85.0977 12.4805 83.1568 10.8326 81.0801C9.01836 78.7973 7.40234 76.3521 6.00391 73.7695H93.9969Z" fill="#3C84B1"/>
<g clip-path="url(#clip1_1986_52514)">
<path d="M81.2491 58.3535C81.0045 58.6361 81.0363 58.9999 80.9434 59.3249C80.2927 61.5963 78.7199 63.173 76.8022 64.5059C74.7023 65.9648 72.3015 66.6772 69.8053 67.1576C67.3483 67.6286 64.8814 68.0525 62.4354 68.5765C59.79 69.144 57.6815 70.5782 55.7271 72.2962C54.2412 73.5997 52.7283 74.8726 50.9512 75.811C50.6528 75.9688 50.3703 76.1643 50.023 76.2278C50.023 72.7001 50.0189 69.1719 50.0107 65.6433C52.6427 64.5118 54.8209 62.7762 56.867 60.8663C58.6697 59.1836 60.7476 58.0662 63.2561 57.6164C65.7021 57.1783 68.1579 56.8522 70.5942 56.3623C75.3481 55.4062 78.6086 52.7486 80.4603 48.4484C80.8468 47.5535 80.9593 46.5891 81.2528 45.6719L81.2491 58.3535Z" fill="#F04864"/>
<path d="M81.2494 45.6709C80.9558 46.5882 80.8433 47.5549 80.4568 48.4474C78.6052 52.7477 75.3446 55.4053 70.5907 56.3614C68.1582 56.8512 65.6987 57.1774 63.2526 57.6154C60.7442 58.0652 58.6663 59.1827 56.8636 60.8653C54.8175 62.7752 52.6393 64.5155 50.0073 65.6424C50.005 65.6207 50.0083 65.5989 50.0171 65.5788C50.0171 64.5073 50.0171 63.4358 50.0061 62.3654C50.0061 62.1605 50.088 61.9309 49.8838 61.7602L50.1418 61.5376C50.2972 61.4482 50.4562 61.3622 50.609 61.268C52.3054 60.2083 53.6849 58.7894 55.199 57.5224C56.9504 56.0564 58.8815 54.9225 61.1796 54.4409C62.4185 54.1807 63.6562 53.9134 64.8951 53.6496C67.0966 53.3682 69.298 53.1186 71.4163 52.4368C76.0442 50.9414 78.7312 45.8676 77.0727 41.22C76.471 39.3007 75.2982 37.7181 73.8672 36.3098C71.6315 34.0985 68.9409 32.5207 65.9751 31.3561C60.8592 29.352 55.4877 28.6585 50.011 28.5172V25C56.0405 25.0071 61.9097 25.8902 67.51 28.1015C70.5278 29.2723 73.3016 30.9576 75.6981 33.0764C77.9753 35.1029 79.734 37.4261 80.6684 40.3039C80.9375 41.1399 80.9913 42.0148 81.2457 42.8496L81.2494 45.6709Z" fill="#FEC2CE"/>
<path d="M50.0107 65.6435C50.0107 69.176 50.0148 72.7041 50.023 76.228C48.027 77.2194 45.8721 77.6869 43.6633 77.9153C40.3513 78.258 37.0492 78.2356 33.7923 77.4302C28.3608 76.0879 24.4105 72.9428 21.737 68.2457C19.7129 64.6932 18.6794 60.9111 18.776 56.8382C18.8396 54.177 18.776 51.5147 18.7834 48.8524C18.7834 48.6605 18.6513 48.425 18.891 48.2637C19.183 50.4913 19.8041 52.6673 20.7353 54.7258C22.62 58.9989 25.4745 62.4807 29.7502 64.7674C32.7906 66.3947 36.0854 67.1224 39.5344 67.2143C43.1325 67.312 46.6621 66.9576 50.0132 65.5728C50.0056 65.5957 50.0047 65.6202 50.0107 65.6435Z" fill="#F7A2B0"/>
<path d="M50.0204 65.5795C46.6694 66.9642 43.1397 67.3186 39.5416 67.2209C36.0878 67.1267 32.793 66.3967 29.7574 64.7741C25.4769 62.4874 22.6272 59.0044 20.7426 54.7324C19.8113 52.6739 19.1903 50.4979 18.8982 48.2703C18.811 47.6147 18.7701 46.9542 18.7759 46.2933C18.975 41.0146 21.2997 36.0177 25.2579 32.36C28.0782 29.8143 31.3828 28.0351 35.0568 26.8823C37.4661 26.1252 39.9293 25.6483 42.4426 25.3304C44.9559 25.0125 47.4888 24.9889 50.0253 25.003V28.5202C49.3038 28.3224 48.5846 28.4861 47.8606 28.4967C45.5161 28.5287 43.1776 28.735 40.8661 29.1137C39.7177 29.3032 38.5583 29.4799 37.4686 29.912C37.367 29.913 37.2659 29.9237 37.1665 29.9438C33.6197 30.9729 30.3567 32.5131 27.6869 35.0459C24.4226 38.1427 22.5795 41.8753 22.4633 46.3204C22.3961 48.9332 23.2192 51.3836 24.2979 53.7386C26.0285 57.5172 28.6787 60.4915 32.6584 62.2248C35.4371 63.4353 38.3687 63.7779 41.3957 63.6908C44.3799 63.6048 47.2491 63.1374 49.9067 61.7632C50.1085 61.934 50.029 62.1636 50.029 62.3685C50.0192 63.4364 50.018 64.508 50.0204 65.5795Z" fill="#FEDAE2"/>
<path d="M49.8896 61.7606C47.232 63.1359 44.3579 63.6069 41.3786 63.6881C38.3516 63.7753 35.42 63.4326 32.6413 62.2221C28.6616 60.4889 26.0113 57.5122 24.2808 53.7359C23.2021 51.381 22.379 48.9353 22.4462 46.3177C22.5685 41.8762 24.4031 38.14 27.6697 35.0432C30.3396 32.521 33.5953 30.975 37.1494 29.9459C37.2487 29.9257 37.3499 29.9151 37.4515 29.9141C38.37 31.1504 39.571 32.1066 40.8184 33.0026C43.5568 34.969 46.6498 36.1713 49.9813 36.833C49.9984 36.8495 50.0143 36.866 50.029 36.8825C50.029 36.9413 50.0156 37.0002 50.0156 37.0579C50.0156 45.0562 50.0156 53.055 50.0156 61.0541C50.0156 61.2236 49.963 61.4132 50.1489 61.538L49.8896 61.7606ZM40.1543 52.7257C41.9571 52.6962 43.6693 52.2547 45.121 51.0772C47.3053 49.3109 47.3017 46.4908 45.121 44.7269C42.5307 42.6357 38.1694 42.5297 35.4689 44.4914C32.8431 46.4002 32.8627 49.484 35.5252 51.3527C36.8803 52.3029 38.4323 52.695 40.1543 52.7257Z" fill="#F04864"/>
<path d="M77.0791 41.2207C78.7375 45.8683 76.0506 50.9421 71.4226 52.4376C69.308 53.1193 67.1066 53.3689 64.9052 53.6504C64.5297 53.3584 64.1604 53.0616 63.7776 52.7743C61.07 50.7625 58.8763 48.1812 57.364 45.2278C56.086 42.775 55.2702 40.1645 54.7773 37.4645C55.5112 37.4163 56.234 37.5364 56.9592 37.5423C59.4101 37.543 61.8594 37.6649 64.2973 37.9073C66.0622 38.0969 67.8135 38.3371 69.549 38.6915C72.1619 39.2179 74.6931 40.0681 77.0791 41.2207Z" fill="#F7A2B0"/>
<path d="M54.7734 37.4668C55.2627 40.1692 56.0821 42.7773 57.3601 45.2301C58.8727 48.1826 61.0664 50.7631 63.7737 52.7743C64.1565 53.058 64.5258 53.363 64.9013 53.6503C63.6624 53.9141 62.4247 54.1814 61.1857 54.4416C58.8877 54.9232 56.9565 56.0571 55.2052 57.5231C53.6911 58.7901 52.3115 60.209 50.6152 61.2687C50.4623 61.3629 50.3033 61.4489 50.148 61.5384C49.9621 61.4135 50.0147 61.224 50.0147 61.0544C50.0147 53.0553 50.0147 45.0566 50.0147 37.0583C50.0147 37.0006 50.0232 36.9405 50.0281 36.8828C51.591 37.2002 53.1779 37.3956 54.7734 37.4668Z" fill="#F7A2B0"/>
<path d="M54.7732 37.4665C53.178 37.3936 51.5915 37.1967 50.0291 36.8778C50.0145 36.8613 49.9986 36.8448 49.9814 36.8283C49.9912 34.0573 50.0002 31.287 50.0084 28.5176C55.485 28.6565 60.8565 29.3501 65.9724 31.3542C68.9407 32.5211 71.6314 34.0989 73.8731 36.3102C75.3041 37.7232 76.477 39.3011 77.0787 41.2204C74.6903 40.0672 72.1567 39.217 69.5412 38.6911C67.8057 38.3379 66.0544 38.1024 64.2896 37.9069C61.8516 37.6645 59.4024 37.5427 56.9514 37.5419C56.2299 37.536 55.5046 37.4159 54.7732 37.4665Z" fill="#F04864"/>
<path d="M50.0079 28.5177C49.9989 31.2872 49.99 34.0574 49.981 36.8285C46.6495 36.1667 43.5565 34.9645 40.8181 32.9981C39.5707 32.102 38.3721 31.1459 37.4512 29.9095C38.5409 29.4774 39.7003 29.3007 40.8487 29.1112C43.1602 28.7325 45.4987 28.5262 47.8432 28.4942C48.5672 28.4883 49.2863 28.3246 50.0079 28.5177Z" fill="#F7A2B0"/>
<path d="M40.1542 52.7261C38.4322 52.6955 36.8801 52.3069 35.5201 51.352C32.8576 49.4833 32.8381 46.3995 35.4639 44.4907C38.1643 42.529 42.5256 42.635 45.116 44.7262C47.3015 46.4925 47.3052 49.3079 45.116 51.0765C43.6691 52.2528 41.9569 52.6967 40.1542 52.7261Z" fill="#FEFEFE"/>
</g>
</g>
<defs>
<clipPath id="clip0_1986_52514">
<rect width="100" height="100" fill="white"/>
</clipPath>
<clipPath id="clip1_1986_52514">
<rect width="62.5" height="53.125" fill="white" transform="translate(18.75 25)"/>
</clipPath>
</defs>
</svg>
