<svg width="52" height="52" viewBox="0 0 52 52" fill="none" xmlns="http://www.w3.org/2000/svg">
<path d="M52 26C52 40.3594 40.3594 52 26 52C11.6406 52 0 40.3594 0 26C0 11.6406 11.6406 0 26 0C40.3594 0 52 11.6406 52 26Z" fill="#00A4FB"/>
<path d="M50.3072 25.9993C50.3072 39.4231 39.4251 50.3052 26.0013 50.3052C12.5774 50.3052 1.69531 39.4231 1.69531 25.9993C1.69531 12.5755 12.5774 1.69336 26.0013 1.69336C39.4251 1.69336 50.3072 12.5755 50.3072 25.9993Z" fill="#49B6FC"/>
<path d="M48.0898 26C48.0898 38.1999 38.1999 48.0898 26 48.0898C13.8001 48.0898 3.91016 38.1999 3.91016 26C3.91016 13.8001 13.8001 3.91016 26 3.91016C38.1999 3.91016 48.0898 13.8001 48.0898 26Z" fill="#93D0FD"/>
<path d="M30.7734 47.5727C29.2363 47.9113 27.6389 48.0898 26 48.0898C13.8001 48.0898 3.91016 38.1999 3.91016 26C3.91016 13.8001 13.8001 3.91016 26 3.91016C27.6389 3.91016 29.2363 4.0887 30.7734 4.42731C20.8681 6.60918 13.457 15.439 13.457 26C13.457 36.561 20.8681 45.3908 30.7734 47.5727Z" fill="#65BEFC"/>
<path d="M42.1585 9.84151C37.8425 5.52541 32.1039 3.14844 26 3.14844C19.8961 3.14844 14.1576 5.52541 9.84151 9.84151C5.52541 14.1576 3.14844 19.8961 3.14844 26C3.14844 32.1039 5.52541 37.8424 9.84151 42.1585C14.1576 46.4746 19.8961 48.8516 26 48.8516C32.1039 48.8516 37.8425 46.4746 42.1585 42.1585C46.4746 37.8424 48.8516 32.1039 48.8516 26C48.8516 19.8961 46.4746 14.1576 42.1585 9.84151ZM26 47.3281C14.2397 47.3281 4.67188 37.7603 4.67188 26C4.67188 14.2397 14.2397 4.67188 26 4.67188C37.7603 4.67188 47.3281 14.2397 47.3281 26C47.3281 37.7603 37.7603 47.3281 26 47.3281Z" fill="#E5F2FD"/>
<path d="M39.7711 11.9944C39.7711 13.0657 38.9026 13.9342 37.8313 13.9342C36.76 13.9342 35.8916 13.0657 35.8916 11.9944C35.8916 10.9231 36.76 10.0547 37.8313 10.0547C38.9026 10.0547 39.7711 10.9231 39.7711 11.9944ZM21.0521 42.3845C20.2747 42.3845 19.6445 43.0147 19.6445 43.792C19.6445 44.5694 20.2747 45.1996 21.0521 45.1996C21.8294 45.1996 22.4596 44.5694 22.4596 43.792C22.4596 43.0147 21.8294 42.3845 21.0521 42.3845Z" fill="#172A7D"/>
<path d="M20.7657 36.7937C16.0425 35.8172 12.4922 31.634 12.4922 26.6215V25.3769C12.4922 20.3644 16.0426 16.1812 20.7658 15.2047C22.5689 13.496 24.7998 12.2342 27.2812 11.5968C28.0776 11.3922 28.9156 11.3922 29.7119 11.5968C32.1933 12.2342 34.4242 13.4959 36.2273 15.2047C40.9505 16.1812 44.5009 20.3644 44.5009 25.3769V26.6215C44.5009 31.634 40.9505 35.8172 36.2274 36.7937C34.4672 38.4619 32.2991 39.704 29.8884 40.3551C28.977 40.6013 28.0163 40.6013 27.1049 40.3551C24.694 39.704 22.526 38.4619 20.7657 36.7937Z" fill="#1F3597"/>
<path d="M23.7295 36.7946C25.4676 38.4417 27.6033 39.6735 29.9775 40.3311C28.7113 40.6818 27.3773 40.8693 25.9995 40.8693C22.0381 40.8693 18.4386 39.3201 15.7735 36.7946C11.0503 35.8181 7.5 31.6349 7.5 26.6224V25.3777C7.5 20.3652 11.0504 16.1821 15.7736 15.2055C18.4386 12.6801 22.0382 11.1309 25.9995 11.1309C27.3773 11.1309 28.7113 11.3183 29.9775 11.669C27.6033 12.3267 25.4676 13.5584 23.7295 15.2055C19.0063 16.1821 15.4559 20.3652 15.4559 25.3777V26.6224C15.4559 31.6349 19.0063 35.8182 23.7295 36.7946Z" fill="#172A7D"/>
<path d="M19.4983 39.2404C18.9117 40.5516 17.5957 41.4652 16.0664 41.4652C13.991 41.4652 12.3086 39.7829 12.3086 37.7074C12.3086 36.178 13.2222 34.8621 14.5334 34.2755C14.5994 34.246 19.5279 39.1744 19.4983 39.2404Z" fill="#314DCA"/>
<path d="M24.1424 35.1555C24.1424 35.9329 23.5122 36.5631 22.7348 36.5631C21.9575 36.5631 21.3274 35.9329 21.3274 35.1555C21.3274 34.3781 21.9576 33.7479 22.7349 33.7479C23.5123 33.7479 24.1424 34.3781 24.1424 35.1555ZM38.9849 19.2974C38.2076 19.2974 37.5774 19.9276 37.5774 20.705C37.5774 21.4823 38.2076 22.1125 38.9849 22.1125C39.7623 22.1125 40.3925 21.4823 40.3925 20.705C40.3924 19.9276 39.7623 19.2974 38.9849 19.2974ZM29.0604 13.4355C28.2831 13.4355 27.6529 14.0657 27.6529 14.8431C27.6529 15.6205 28.2831 16.2506 29.0604 16.2506C29.8378 16.2506 30.468 15.6204 30.468 14.843C30.468 14.0656 29.8378 13.4355 29.0604 13.4355ZM16.0659 33.9509C15.5199 33.9509 15.0011 34.0674 14.5329 34.2768C14.3235 34.7449 14.207 35.2638 14.207 35.8098C14.207 37.8851 15.8894 39.5676 17.9648 39.5676C18.5108 39.5676 19.0297 39.4511 19.4978 39.2417C19.7072 38.7735 19.8237 38.2547 19.8237 37.7087C19.8237 35.6333 18.1414 33.9509 16.0659 33.9509Z" fill="#4F66D1"/>
<path d="M20.8774 30.49C20.7135 30.6833 20.5361 30.8653 20.35 31.031C19.364 31.9091 18.0902 32.3734 16.6663 32.3734C13.5583 32.3734 10.9488 30.1975 10.2813 27.2891C10.1719 26.8123 10.5355 26.3574 11.0246 26.3574C11.3762 26.3574 11.6864 26.5972 11.7645 26.9401C12.2738 29.1761 14.2783 30.8499 16.6663 30.8499C17.7256 30.8499 18.624 30.5281 19.3367 29.8934C19.4753 29.77 19.6074 29.6336 19.7294 29.4881C20.0186 29.1433 20.5478 29.1189 20.8673 29.4548C21.1383 29.7394 21.1315 30.1904 20.8774 30.49ZM34.8236 26.3574C34.472 26.3574 34.1619 26.5972 34.0838 26.9401C33.5744 29.1761 31.57 30.8499 29.1819 30.8499C26.7939 30.8499 24.7896 29.1761 24.2802 26.9401C24.2021 26.5972 23.892 26.3574 23.5403 26.3574C23.0512 26.3574 22.6876 26.8123 22.797 27.2891C23.4646 30.1975 26.0739 32.3734 29.1819 32.3734C32.29 32.3734 34.8994 30.1975 35.567 27.2891C35.6764 26.8123 35.3128 26.3574 34.8236 26.3574Z" fill="#BDE2FD"/>
<path d="M41.8812 33.3078C41.8866 33.7285 41.5498 34.0738 41.1292 34.0791C40.3324 34.0892 39.7499 34.0934 39.3213 34.0934C38.2193 34.0934 38.134 34.0649 38.033 34.0313C37.7843 33.9484 37.5982 33.7596 37.5224 33.5132C37.3949 33.0989 37.5902 32.8433 37.9446 32.3793C38.2276 32.0086 38.7544 31.3189 39.6375 30.0571C39.9357 29.6313 40.0568 29.3289 40.1052 29.1425L40.12 29.0262C40.0996 28.6766 39.8086 28.3983 39.4539 28.3983C39.1357 28.3983 38.8603 28.6242 38.7992 28.9355C38.718 29.3482 38.3177 29.6171 37.9048 29.536C37.4921 29.4549 37.2232 29.0545 37.3043 28.6417C37.5054 27.6179 38.4095 26.8749 39.4539 26.8749C40.6619 26.8749 41.6446 27.8576 41.6446 29.0656C41.6446 29.0978 41.6424 29.1301 41.6384 29.1621L41.6109 29.3781C41.6076 29.4035 41.6031 29.4289 41.5972 29.4538C41.4913 29.9106 41.2518 30.4075 40.8855 30.9308C40.3908 31.6375 40.0052 32.1692 39.71 32.5677C40.1479 32.5659 40.6414 32.5618 41.11 32.5559H41.1197C41.5361 32.5557 41.876 32.8904 41.8812 33.3078ZM28.6475 19.2929C25.4388 19.5493 22.8692 22.1503 22.6485 25.3617C22.5937 26.1593 22.6827 26.9295 22.892 27.6491C22.9852 27.9697 23.2824 28.1882 23.6163 28.1882H23.6299C24.1366 28.1882 24.4928 27.7011 24.3522 27.2143C24.1988 26.6827 24.1308 26.1152 24.1646 25.5277C24.3116 22.9627 26.4185 20.8975 28.9858 20.7989C31.8473 20.6889 34.2101 22.9847 34.2101 25.8221C34.2101 26.3106 34.14 26.7831 34.0094 27.2299C33.8691 27.7101 34.2408 28.1883 34.7411 28.1883H34.7504C35.083 28.1883 35.3803 27.9718 35.4733 27.6525C35.6427 27.0714 35.7335 26.4571 35.7335 25.8221C35.7336 22.033 32.5 18.9851 28.6475 19.2929ZM20.3306 20.3906C19.1642 19.6027 17.7861 19.2145 16.3668 19.2783C12.8471 19.4363 10.0573 22.4142 10.1182 25.9368C10.1284 26.5305 10.218 27.105 10.3768 27.6504C10.4701 27.9705 10.7672 28.1881 11.1006 28.1881H11.114C11.622 28.1881 11.9764 27.6992 11.8358 27.211C11.7038 26.7524 11.6353 26.2671 11.6409 25.7653C11.6702 23.1132 13.7991 20.912 16.449 20.7995C17.5285 20.7537 18.5758 21.0479 19.4637 21.6436C19.8029 21.8711 20.275 21.8029 20.5171 21.4741C20.7752 21.1234 20.6879 20.6319 20.3306 20.3906Z" fill="white"/>
<path d="M12.4255 11.462C11.4132 12.4428 10.0332 13.0463 8.51234 13.0463C5.78538 13.0463 3.45127 11.0904 2.97434 8.40545L1.69556 1.2069C1.63249 0.851532 13.481 10.4395 12.4255 11.462Z" fill="#00C53B"/>
<path d="M14.1372 7.42069C14.1372 9.04132 13.4518 10.5019 12.3551 11.5283C11.7235 12.1194 8.44548 11.806 5.8598 8.30845C4.24932 6.13034 1.69574 1.20588 1.69574 1.20588C1.63256 0.850511 1.94233 0.540847 2.2977 0.603917L9.49634 1.88269C12.1813 2.35973 14.1372 4.69384 14.1372 7.42069Z" fill="#4BCD5C"/>
<path d="M14.0976 13.0078C13.9489 13.1565 13.7539 13.2309 13.559 13.2309C13.3641 13.2309 13.1691 13.1566 13.0204 13.0078L9.92265 9.91001H6.88247C6.4618 9.91001 6.12076 9.56897 6.12076 9.14829C6.12076 8.72762 6.4618 8.38658 6.88247 8.38658H8.39921L5.74264 5.73001C5.44516 5.43253 5.44516 4.95021 5.74264 4.65283C6.04012 4.35536 6.52244 4.35525 6.81981 4.65283L9.47638 7.3094V5.79267C9.47638 5.372 9.81743 5.03095 10.2381 5.03095C10.6588 5.03095 10.9998 5.372 10.9998 5.79267V8.83284L14.0976 11.9306C14.3951 12.2281 14.3951 12.7104 14.0976 13.0078Z" fill="#00A86D"/>
<path d="M46.8033 7.48566C46.407 8.37159 45.5178 8.98889 44.4844 8.98889C43.0821 8.98889 41.9453 7.8521 41.9453 6.44982C41.9453 5.41642 42.5626 4.52735 43.4485 4.13095C43.4932 4.11104 46.8233 7.44107 46.8033 7.48566Z" fill="#00C53B"/>
<path d="M44.8008 42.0782C43.6789 42.0782 42.7695 42.9875 42.7695 44.1094C42.7695 45.2313 43.6789 46.1407 44.8008 46.1407C45.9226 46.1407 46.832 45.2313 46.832 44.1094C46.832 42.9875 45.9226 42.0782 44.8008 42.0782ZM47.0255 6.44912C47.0255 6.81809 46.9468 7.16859 46.8053 7.48495C46.489 7.62643 46.1385 7.70514 45.7695 7.70514C44.3672 7.70514 43.2304 6.56835 43.2304 5.16608C43.2304 4.7971 43.3091 4.44661 43.4506 4.13034C43.767 3.98887 44.1175 3.91016 44.4864 3.91016C45.8887 3.91005 47.0255 5.04684 47.0255 6.44912Z" fill="#4BCD5C"/>
</svg>
