<svg width="100" height="100" viewBox="0 0 100 100" fill="none" xmlns="http://www.w3.org/2000/svg">
<g clip-path="url(#clip0_1986_52579)">
<path d="M100 50C100 77.6146 77.6146 100 50 100C22.3854 100 0 77.6146 0 50C0 22.3854 22.3854 0 50 0C77.6146 0 100 22.3854 100 50Z" fill="#80D8B9"/>
<path d="M100 50C100 55.0881 99.24 59.9982 97.8264 64.6232C96.8438 67.8398 95.5467 70.9184 93.9689 73.8242C92.3576 76.793 65.1816 78.4633 50 78.4633C34.8184 78.4633 7.64238 76.793 6.0334 73.8242C5.39102 72.6463 4.79668 71.4395 4.25195 70.2049C1.51758 64.0273 0 57.1914 0 50C0 40.9729 2.39258 32.5059 6.57812 25.1953C15.1955 40.248 31.4141 50.3906 50 50.3906C68.5859 50.3906 84.8068 40.248 93.4219 25.1953C97.6074 32.5059 100 40.9729 100 50Z" fill="#80D8B9"/>
<path d="M93.9969 73.7695C92.5984 76.3521 90.9824 78.7973 89.1682 81.0801C87.5203 83.1568 85.7074 85.0977 83.7543 86.8853C74.86 95.0297 63.01 100 50.0004 100C36.9908 100 25.1408 95.0297 16.2465 86.8853C14.2934 85.0977 12.4805 83.1568 10.8326 81.0801C9.01836 78.7973 7.40234 76.3521 6.00391 73.7695H93.9969Z" fill="#3C84B1"/>
<g clip-path="url(#clip1_1986_52579)">
<path d="M27.4226 72.2192C26.7122 70.8593 26.0149 69.4993 25.298 68.146C25.0844 67.7439 24.9767 67.2938 24.9852 66.8383C24.9852 54.8039 24.9852 42.7695 24.9852 30.735C24.974 30.2793 25.0819 29.8285 25.298 29.4274C26.0149 28.074 26.7122 26.7076 27.4226 25.3477H49.0141C49.3399 25.3477 49.6658 25.3804 49.9851 25.3934C49.9851 28.0871 49.9851 30.7786 49.9851 33.468C49.058 33.505 48.1346 33.6076 47.2219 33.7752C41.011 35.1221 36.879 38.8553 35.3084 44.9946C33.7377 51.1339 35.6082 56.4755 40.4766 60.6141C43.1554 62.8255 46.5159 64.0363 49.9851 64.04C49.9851 66.7294 49.9851 69.4209 49.9851 72.1146C49.6593 72.1146 49.3334 72.1603 49.0141 72.1603L27.4226 72.2192Z" fill="#02DA62"/>
<path d="M49.9981 25.4319C49.6722 25.4319 49.3464 25.3862 49.0271 25.3862H27.4355V18.75L28.8432 20.0576C29.6188 20.7703 30.4139 21.4698 31.1634 22.2152C31.215 22.2842 31.2819 22.3402 31.3588 22.3788C31.4357 22.4174 31.5205 22.4375 31.6065 22.4375C31.6925 22.4375 31.7774 22.4174 31.8543 22.3788C31.9312 22.3402 31.9981 22.2842 32.0497 22.2152C33.2423 21.2083 34.4872 20.2538 35.6537 19.2338C36.1947 18.7565 36.514 18.8154 36.9963 19.3123C37.9217 20.2668 38.9514 21.1364 39.8834 22.0779C40.2809 22.4702 40.5351 22.529 41.0044 22.1563C42.2687 21.1168 43.6112 20.1492 44.8495 19.1227C44.9155 19.0419 44.9986 18.9769 45.0927 18.9322C45.1868 18.8876 45.2896 18.8644 45.3937 18.8644C45.4978 18.8644 45.6006 18.8876 45.6947 18.9322C45.7888 18.9769 45.8718 19.0419 45.9379 19.1227C47.0653 20.1165 48.258 21.0449 49.3724 22.0648C49.8678 22.5094 50.1741 22.4375 50.6173 22.0321C51.7382 21.0187 52.9178 20.0707 54.0323 19.0638C54.4233 18.7108 54.684 18.7696 55.0489 19.0638C56.4567 20.123 57.8904 21.1364 59.2916 22.2021C59.6696 22.4832 59.8978 22.4832 60.2301 22.1302C61.2012 21.1102 62.2309 20.1688 63.1954 19.1227C63.5669 18.7239 63.795 18.7762 64.1665 19.1227C65.3461 20.1426 66.5844 21.0841 67.751 22.1302C68.2202 22.5486 68.4809 22.4702 68.911 22.0713C70.0326 20.9265 71.2255 19.8543 72.4825 18.8611V25.3992C72.0588 25.3992 71.6287 25.4385 71.179 25.4385H52.4746C51.647 25.3992 50.8258 25.4254 49.9981 25.4319Z" fill="#FDC900"/>
<path d="M27.4223 72.2183H49.0139C49.3397 72.2183 49.6656 72.2183 49.9849 72.1725C50.3043 72.1268 50.5324 72.2052 50.8061 72.2052H71.3222C71.7002 72.2052 72.0783 72.2052 72.4497 72.2445V78.6256C72.176 78.7106 72.0848 78.4818 71.9479 78.3641C70.8921 77.3965 69.8298 76.4027 68.8066 75.435C68.4482 75.0885 68.2135 75.0493 67.816 75.3893C66.7341 76.3242 65.6067 77.2134 64.4987 78.1157C63.5733 78.8675 63.5733 78.8741 62.6804 78.0372C61.7876 77.2003 60.836 76.3308 59.9497 75.422C59.8929 75.3453 59.8201 75.282 59.7363 75.2366C59.6526 75.1912 59.5599 75.1648 59.4649 75.1592C59.3698 75.1536 59.2747 75.1689 59.1862 75.2042C59.0977 75.2394 59.0179 75.2936 58.9526 75.3631C57.6883 76.3961 56.3457 77.3572 55.1074 78.3968C55.0373 78.4865 54.9478 78.5591 54.8456 78.6089C54.7434 78.6588 54.6313 78.6848 54.5176 78.6848C54.404 78.6848 54.2918 78.6588 54.1897 78.6089C54.0875 78.5591 53.9979 78.4865 53.9278 78.3968C52.8003 77.3572 51.6012 76.3961 50.4542 75.3827C50.3997 75.3084 50.3285 75.248 50.2464 75.2063C50.1643 75.1647 50.0736 75.143 49.9816 75.143C49.8897 75.143 49.799 75.1647 49.7169 75.2063C49.6348 75.248 49.5637 75.3084 49.5092 75.3827C48.3817 76.3765 47.189 77.3115 46.0746 78.3183C45.9977 78.4264 45.8975 78.5157 45.7814 78.5795C45.6654 78.6433 45.5365 78.68 45.4043 78.687C45.2722 78.6939 45.1401 78.6708 45.0181 78.6194C44.896 78.568 44.7871 78.4897 44.6995 78.3903C43.396 77.3769 42.0926 76.4681 40.7891 75.4677C40.3004 75.0885 40.0071 75.0362 39.5574 75.5396C38.645 76.54 37.6413 77.4618 36.7028 78.4426C36.3705 78.7956 36.1554 78.8022 35.7905 78.4883C34.5913 77.4553 33.3465 76.4746 32.1473 75.435C31.7498 75.0951 31.4956 75.0428 31.0981 75.435C29.951 76.5596 28.7519 77.6318 27.5788 78.7041C27.3637 78.5668 27.4223 78.351 27.4223 78.1614C27.4223 76.2131 27.4223 74.219 27.4223 72.2183Z" fill="#FDC900"/>
<path d="M72.4632 72.2242C72.0917 72.2242 71.7137 72.185 71.3357 72.185H50.8196C50.5459 72.185 50.2721 72.185 49.9984 72.1523C49.9984 69.4586 49.9984 66.7671 49.9984 64.0777C50.8717 63.9731 51.7515 63.9143 52.6053 63.7639C55.763 63.2156 58.6663 61.6774 60.8982 59.3703C63.13 57.0633 64.5757 54.1059 65.0275 50.9231C65.4793 47.7403 64.9139 44.4956 63.4127 41.6553C61.9115 38.8149 59.5517 36.5248 56.672 35.114C54.5721 34.1375 52.2985 33.5928 49.9854 33.5122C49.9854 30.8229 49.9854 28.1314 49.9854 25.4377C50.813 25.4377 51.6342 25.4377 52.4619 25.4377H71.1728C71.5964 25.4377 72.0265 25.4377 72.4762 25.3984C73.4082 26.863 74.1251 28.4452 74.9267 29.9751C75.0066 30.2126 75.0333 30.4649 75.0049 30.7139C75.0049 42.7832 75.0049 54.8525 75.0049 66.9218C75.0161 67.3229 74.9217 67.7198 74.7312 68.0725C73.9622 69.4324 73.3235 70.8904 72.4632 72.2242Z" fill="#01A868"/>
<path d="M49.9849 33.5137C52.2963 33.5972 54.5677 34.1441 56.6651 35.122C59.5447 36.5328 61.9046 38.8229 63.4058 41.6633C64.907 44.5037 65.4723 47.7483 65.0205 50.9311C64.5687 54.1139 63.1231 57.0713 60.8912 59.3784C58.6594 61.6854 55.7561 63.2236 52.5983 63.7719C51.7381 63.9223 50.8583 63.9811 49.9915 64.0857C46.5125 64.0863 43.1417 62.8728 40.4568 60.6533C35.5884 56.5146 33.705 51.2188 35.2887 45.0338C36.8723 38.8487 40.9912 35.1613 47.2021 33.8144C48.1214 33.6481 49.0514 33.5476 49.9849 33.5137ZM42.6922 53.5987C42.6922 53.8733 42.6922 54.0498 42.6922 54.2525C42.8551 56.652 44.126 57.5215 46.407 56.8023C47.0535 56.6026 47.6869 56.3624 48.3035 56.0831C48.805 55.8505 49.3509 55.73 49.9035 55.73C50.456 55.73 51.0019 55.8505 51.5035 56.0831C52.2417 56.3971 52.9967 56.67 53.7649 56.9004C55.7918 57.5019 56.9714 56.6912 57.2321 54.5794C57.3771 53.3449 57.1428 52.0954 56.5604 50.9982C55.9781 49.901 55.0754 49.0085 53.9735 48.4401C52.7319 47.7553 51.3352 47.4034 49.9184 47.4183C48.5016 47.4331 47.1126 47.8144 45.8856 48.5251C44.9535 49.01 44.1665 49.7347 43.6054 50.6251C43.0443 51.5154 42.7291 52.5394 42.6922 53.5921V53.5987ZM50.8843 42.5297C50.8843 44.2884 52.103 45.6876 53.6476 45.6941C54.4164 45.6011 55.1245 45.2287 55.6382 44.6475C56.1519 44.0662 56.4355 43.3163 56.4355 42.5395C56.4355 41.7627 56.1519 41.0128 55.6382 40.4315C55.1245 39.8503 54.4164 39.4779 53.6476 39.3849C52.1095 39.3979 50.8843 40.7709 50.8843 42.5297ZM49.1442 42.6474C49.1834 42.0335 49.0434 41.4215 48.7413 40.8862C48.4392 40.3509 47.9881 39.9155 47.4432 39.6333C46.9991 39.4147 46.4986 39.3389 46.0099 39.4161C45.5212 39.4933 45.0682 39.7199 44.7125 40.0648C44.2152 40.532 43.87 41.139 43.7223 41.8063C43.5746 42.4737 43.6313 43.1702 43.8848 43.8046C44.0339 44.3546 44.358 44.8407 44.8079 45.1889C45.2577 45.5371 45.8086 45.7284 46.3767 45.7336C46.9448 45.7387 47.4991 45.5576 47.9552 45.2176C48.4112 44.8777 48.7441 44.3976 48.9031 43.8504C49.0574 43.475 49.137 43.073 49.1377 42.667L49.1442 42.6474ZM42.7769 47.4986C42.7897 47.0163 42.6595 46.5409 42.4028 46.1328C42.1462 45.7247 41.7747 45.4021 41.3352 45.2059C40.8958 45.0098 40.4082 44.9488 39.9341 45.0307C39.4601 45.1126 39.021 45.3338 38.6723 45.6662C38.3236 45.9985 38.0811 46.4273 37.9754 46.898C37.8697 47.3687 37.9055 47.8604 38.0784 48.3106C38.2513 48.7609 38.5535 49.1496 38.9467 49.4276C39.3399 49.7055 39.8065 49.8601 40.2873 49.872C40.6064 49.8824 40.9243 49.829 41.2226 49.7149C41.5209 49.6008 41.7936 49.4283 42.0247 49.2074C42.2558 48.9865 42.4408 48.7216 42.5688 48.4282C42.6969 48.1349 42.7654 47.8188 42.7704 47.4986H42.7769ZM57.193 47.3679C57.1793 47.8537 57.309 48.3326 57.5659 48.7447C57.8228 49.1567 58.1954 49.4833 58.6368 49.6835C59.0782 49.8837 59.5687 49.9485 60.0468 49.8699C60.5248 49.7912 60.969 49.5725 61.3235 49.2413C61.678 48.9101 61.927 48.4812 62.0391 48.0084C62.1513 47.5357 62.1218 47.0402 61.9541 46.5843C61.7864 46.1283 61.4881 45.7323 61.0966 45.446C60.7052 45.1596 60.2382 44.9958 59.7542 44.9749C59.4275 44.9564 59.1003 45.0042 58.7925 45.1156C58.4846 45.227 58.2023 45.3995 57.9626 45.623C57.7228 45.8465 57.5304 46.1162 57.3971 46.416C57.2637 46.7158 57.1921 47.0396 57.1864 47.3679H57.193Z" fill="#FEFDFD"/>
<path d="M42.6924 53.5912C42.7232 52.5286 43.0375 51.4937 43.6027 50.5945C44.1678 49.6952 44.963 48.9645 45.9054 48.4784C47.1324 47.7677 48.5214 47.3864 49.9382 47.3715C51.355 47.3567 52.7516 47.7086 53.9932 48.3934C55.0952 48.9618 55.9978 49.8543 56.5802 50.9515C57.1626 52.0487 57.3969 53.2982 57.2518 54.5327C56.9911 56.6445 55.8115 57.4552 53.7847 56.8537C53.0164 56.6233 52.2614 56.3504 51.5232 56.0364C51.0217 55.8038 50.4758 55.6833 49.9232 55.6833C49.3707 55.6833 48.8248 55.8038 48.3233 56.0364C47.7067 56.3157 47.0733 56.5559 46.4267 56.7556C44.1457 57.4879 42.8749 56.6052 42.712 54.2058C42.7054 54.0423 42.7054 53.8658 42.6924 53.5912Z" fill="#FDC900"/>
<path d="M50.8848 42.5296C50.8848 40.7709 52.1165 39.3783 53.6611 39.3848C54.4299 39.4778 55.138 39.8502 55.6517 40.4315C56.1654 41.0127 56.449 41.7626 56.449 42.5394C56.449 43.3162 56.1654 44.0661 55.6517 44.6474C55.138 45.2286 54.4299 45.601 53.6611 45.694C52.097 45.6875 50.8848 44.2884 50.8848 42.5296Z" fill="#FDC900"/>
<path d="M49.1381 42.6669C49.1379 43.08 49.0559 43.4889 48.8969 43.8699C48.7379 44.4171 48.405 44.8972 47.949 45.2371C47.4929 45.5771 46.9387 45.7583 46.3705 45.7531C45.8024 45.7479 45.2515 45.5567 44.8017 45.2084C44.3519 44.8602 44.0278 44.3741 43.8787 43.8241C43.6251 43.1897 43.5685 42.4932 43.7162 41.8259C43.8638 41.1585 44.209 40.5515 44.7064 40.0843C45.062 39.7394 45.5151 39.5129 46.0037 39.4356C46.4924 39.3584 46.993 39.4343 47.4371 39.6528C47.982 39.935 48.433 40.3704 48.7351 40.9057C49.0372 41.441 49.1773 42.053 49.1381 42.6669Z" fill="#FDC900"/>
<path d="M42.7711 47.4971C42.758 47.9792 42.6028 48.4466 42.325 48.8402C42.0472 49.2337 41.6593 49.5359 41.2104 49.7083C40.7615 49.8808 40.2717 49.9158 39.8029 49.8091C39.3341 49.7023 38.9074 49.4585 38.5767 49.1085C38.246 48.7585 38.0262 48.3179 37.945 47.8426C37.8639 47.3673 37.9251 46.8785 38.1208 46.438C38.3165 45.9975 38.638 45.6251 39.0446 45.368C39.4513 45.1108 39.9248 44.9803 40.4053 44.993C40.7257 44.998 41.0418 45.0672 41.3351 45.1964C41.6284 45.3257 41.8931 45.5124 42.1134 45.7457C42.3338 45.979 42.5055 46.2541 42.6185 46.5548C42.7314 46.8556 42.7833 47.176 42.7711 47.4971Z" fill="#FDC900"/>
<path d="M57.1863 47.368C57.1992 46.8821 57.355 46.4109 57.6341 46.0136C57.9132 45.6163 58.3032 45.3107 58.755 45.1351C59.2069 44.9596 59.7003 44.922 60.1734 45.027C60.6464 45.132 61.078 45.375 61.4138 45.7255C61.7495 46.0759 61.9745 46.5181 62.0605 46.9964C62.1464 47.4748 62.0894 47.968 61.8967 48.4139C61.704 48.8599 61.3842 49.2388 60.9774 49.5029C60.5707 49.767 60.0952 49.9045 59.6107 49.8983C59.2842 49.8976 58.9612 49.831 58.6609 49.7024C58.3606 49.5737 58.0892 49.3857 57.8629 49.1496C57.6367 48.9134 57.4601 48.634 57.3439 48.3279C57.2276 48.0218 57.174 47.6953 57.1863 47.368Z" fill="#FDC900"/>
</g>
</g>
<defs>
<clipPath id="clip0_1986_52579">
<rect width="100" height="100" fill="white"/>
</clipPath>
<clipPath id="clip1_1986_52579">
<rect width="50" height="60" fill="white" transform="translate(25 18.75)"/>
</clipPath>
</defs>
</svg>
