<svg width="100" height="100" viewBox="0 0 100 100" fill="none" xmlns="http://www.w3.org/2000/svg">
<g clip-path="url(#clip0_1986_52640)">
<path d="M100 50C100 77.6146 77.6146 100 50 100C22.3854 100 0 77.6146 0 50C0 22.3854 22.3854 0 50 0C77.6146 0 100 22.3854 100 50Z" fill="#80D8B9"/>
<path d="M100 50C100 55.0881 99.24 59.9982 97.8264 64.6232C96.8438 67.8398 95.5467 70.9184 93.9689 73.8242C92.3576 76.793 65.1816 77.2795 50 77.2795C34.8184 77.2795 7.64238 76.793 6.0334 73.8242C5.39102 72.6463 4.79668 71.4395 4.25195 70.2049C1.51758 64.0273 0 57.1914 0 50C0 40.9729 2.39258 32.5059 6.57812 25.1953C15.1955 40.248 31.4141 50.3906 50 50.3906C68.5859 50.3906 84.8068 40.248 93.4219 25.1953C97.6074 32.5059 100 40.9729 100 50Z" fill="#80D8B9"/>
<path d="M93.9969 73.7695C92.5984 76.3521 90.9824 78.7973 89.1682 81.0801C87.5203 83.1568 85.7074 85.0977 83.7543 86.8853C74.86 95.0297 63.01 100 50.0004 100C36.9908 100 25.1408 95.0297 16.2465 86.8853C14.2934 85.0977 12.4805 83.1568 10.8326 81.0801C9.01836 78.7973 7.40234 76.3521 6.00391 73.7695H93.9969Z" fill="#3C84B1"/>
<path d="M35.5605 64.0801H45.258V73.7775H35.5605V64.0801Z" fill="#4E5262"/>
<path d="M67.8857 64.0801V73.7773H77.5832V67.3125L67.8857 64.0801Z" fill="#383D4F"/>
<path d="M53.4473 48.457H67.9934V65.158H53.4473V48.457Z" fill="#EDD891"/>
<path d="M69.0979 50.3418L77.583 52.7662V60.8475L62.6328 63.2719L69.0979 50.3418Z" fill="#FEA81B"/>
<path d="M67.7381 38.0039H54.5926L45.9043 45.3848L56.5715 52.7656H77.5826L73.8035 42.2314C72.8709 39.7029 70.4334 38.0039 67.7381 38.0039Z" fill="#7FE4F6"/>
<path d="M56.5721 60.8477L50.2148 64.0801L56.5721 67.3127H77.5832V60.8477H56.5721Z" fill="#737B97"/>
<path d="M22.415 73.7773H32.1123V64.0801L22.415 67.3125V73.7773Z" fill="#383D4F"/>
<path d="M54.7402 64.0801V73.7773H64.4377V67.3125L54.7402 64.0801Z" fill="#22273B"/>
<path d="M40.3018 48.457H57.0029V65.158H40.3018V48.457Z" fill="#FB6B31"/>
<path d="M55.9521 50.3418L64.4375 52.7662V60.8475L49.4873 63.2719L55.9521 50.3418Z" fill="#FFDF66"/>
<path d="M29.958 48.457H43.4268V65.158H29.958V48.457Z" fill="#EBB62B"/>
<path d="M30.9002 50.3418L22.415 52.7662V60.8475L37.3652 63.2719L30.9002 50.3418Z" fill="#FFF8CC"/>
<path d="M54.5926 38.0039H43.426L32.7588 45.3848L43.426 52.7656H64.4371L60.658 42.2314C59.7252 39.7029 57.2877 38.0039 54.5926 38.0039Z" fill="#58B9EE"/>
<path d="M43.4264 38.0039H32.2598C29.5647 38.0039 27.127 39.7029 26.1941 42.2316L22.415 52.7656H43.4262V38.0039H43.4264Z" fill="#7FE4F6"/>
<path d="M43.4266 60.8477L37.0693 64.0801L43.4266 67.3127H64.4377V60.8477H43.4266Z" fill="#80A5AF"/>
<path d="M22.415 60.8477H43.4262V67.3127H22.415V60.8477Z" fill="#9ABDC9"/>
<path d="M51.6154 18.6094C47.1523 18.6094 43.5342 22.2273 43.5342 26.6906L54.0936 29.923L64.6529 26.6906H69.5018C73.9648 26.6906 77.583 23.0727 77.583 18.6094H51.6154Z" fill="#383D4F"/>
<path d="M43.4268 26.6914L40.1943 30.732L43.4268 34.7727H56.5723C61.0354 34.7727 64.6535 31.1547 64.6535 26.6914H43.4268Z" fill="#4E5262"/>
<path d="M40.1936 26.6914C35.7305 26.6914 32.1123 30.3094 32.1123 34.7727H43.426V26.6914H40.1936Z" fill="#5A637B"/>
</g>
<defs>
<clipPath id="clip0_1986_52640">
<rect width="100" height="100" fill="white"/>
</clipPath>
</defs>
</svg>
