<svg width="100" height="100" viewBox="0 0 100 100" fill="none" xmlns="http://www.w3.org/2000/svg">
<g clip-path="url(#clip0_1986_52533)">
<path d="M100 50C100 77.6146 77.6146 100 50 100C22.3854 100 0 77.6146 0 50C0 22.3854 22.3854 0 50 0C77.6146 0 100 22.3854 100 50Z" fill="#80D8B9"/>
<path d="M100 50C100 55.0881 99.24 59.9982 97.8264 64.6232C96.8438 67.8398 95.5467 70.9184 93.9689 73.8242C92.3576 76.793 65.1816 78.8736 50 78.8736C34.8184 78.8736 7.64238 76.793 6.0334 73.8242C5.39102 72.6463 4.79668 71.4395 4.25195 70.2049C1.51758 64.0273 0 57.1914 0 50C0 40.9729 2.39258 32.5059 6.57812 25.1953C15.1955 40.248 31.4141 50.3906 50 50.3906C68.5859 50.3906 84.8068 40.248 93.4219 25.1953C97.6074 32.5059 100 40.9729 100 50Z" fill="#80D8B9"/>
<path d="M93.9969 73.7695C92.5984 76.3521 90.9824 78.7973 89.1682 81.0801C87.5203 83.1568 85.7074 85.0977 83.7543 86.8853C74.86 95.0297 63.01 100 50.0004 100C36.9908 100 25.1408 95.0297 16.2465 86.8853C14.2934 85.0977 12.4805 83.1568 10.8326 81.0801C9.01836 78.7973 7.40234 76.3521 6.00391 73.7695H93.9969Z" fill="#3C84B1"/>
<path d="M47.993 56.7566V52.7412H35.8797V44.041H31.8643L32.5334 78.8416H33.8719L35.8797 80.1801V72.8184H43.9773V68.8029H35.8797V64.7875H45.9852V60.7721H35.8797V56.7566H47.993Z" fill="#7FE4F6"/>
<path d="M31.8643 44.041V52.7412H19.751V56.7566H31.8643V60.7721H21.7588V64.7875H31.8643V68.8029H23.7664V72.8184H31.8643V80.1801L33.8719 78.8416V44.041H31.8643Z" fill="#BDF3FF"/>
<path d="M17.9287 88.3564C20.4137 90.4363 23.1031 92.2797 25.9635 93.851C30.7381 90.5842 33.8717 85.0949 33.8717 78.873C26.9885 78.8729 21.0012 82.7072 17.9287 88.3564Z" fill="#3F91E9"/>
<path d="M33.8711 78.873C33.8711 88.8895 41.991 97.0094 52.0074 97.0094C52.0076 86.993 43.8877 78.873 33.8711 78.873Z" fill="#1A6DE1"/>
<path d="M47.9926 46.1445C47.9926 37.8549 42.3908 30.6303 34.3699 28.575L33.8717 28.4473L25.8408 38.5861L33.8717 46.7174H47.9926V46.1445Z" fill="#33ABFE"/>
<path d="M33.3736 28.575C25.3529 30.6301 19.751 37.8549 19.751 46.1445V46.7176H33.8719V28.4473L33.3736 28.575Z" fill="#58B9EE"/>
<path d="M80.2498 68.7008V72.7162H68.1365V81.4162H64.1211L64.7904 46.6158H66.1289L68.1365 45.2773V52.6391H76.2344V56.6545H68.1365V60.6699H78.242V64.6854H68.1365V68.7008H80.2498Z" fill="#7FE4F6"/>
<path d="M64.1209 81.4162V72.7162H52.0078V68.7008H64.1209V64.6854H54.0154V60.6699H64.1209V56.6545H56.0232V52.6391H64.1209V45.2773L66.1287 46.6158V81.4162H64.1209Z" fill="#BDF3FF"/>
<path d="M47.9922 28.4473C58.0086 28.4473 66.1285 36.5672 66.1285 46.5836C56.1119 46.5836 47.9922 38.4637 47.9922 28.4473Z" fill="#3F91E9"/>
<path d="M66.1289 46.5836C66.1289 36.5672 74.2488 28.4473 84.2652 28.4473C84.2652 38.4637 76.1453 46.5836 66.1289 46.5836Z" fill="#1A6DE1"/>
<path d="M80.2494 79.3131C80.2494 87.6027 74.6477 94.8273 66.6268 96.8826L66.1285 97.0104L58.0977 86.8715L66.1285 78.7402H80.2494V79.3131Z" fill="#33ABFE"/>
<path d="M65.6305 96.8828C57.6098 94.8277 52.0078 87.6029 52.0078 79.3133V78.7402H66.1287V97.0104L65.6305 96.8828Z" fill="#58B9EE"/>
<path d="M44.8494 12.7012H44.5518C43.2326 12.7012 42.1639 11.6314 42.1639 10.3131V10.0156H40.4617V10.3131C40.4617 11.6314 39.392 12.7012 38.0736 12.7012H37.7754V14.4033H38.0736C39.392 14.4033 40.4617 15.4721 40.4617 16.7912V17.0896H42.1639V16.7912C42.1639 15.4721 43.2326 14.4033 44.5518 14.4033H44.8494V12.7012Z" fill="white"/>
<path d="M66.1424 21.6504H65.8447C64.5256 21.6504 63.4568 20.5807 63.4568 19.2623V18.9648H61.7547V19.2623C61.7547 20.5807 60.685 21.6504 59.3666 21.6504H59.0684V23.3525H59.3666C60.685 23.3525 61.7547 24.4213 61.7547 25.7404V26.0389H63.4568V25.7404C63.4568 24.4213 64.5256 23.3525 65.8447 23.3525H66.1424V21.6504Z" fill="white"/>
<path d="M25.0027 22.502H24.7051C23.3859 22.502 22.3172 21.4322 22.3172 20.1139V19.8164H20.615V20.1139C20.615 21.4322 19.5453 22.502 18.227 22.502H17.9287V24.2041H18.227C19.5453 24.2041 20.615 25.2729 20.615 26.592V26.8904H22.3172V26.592C22.3172 25.2729 23.3859 24.2041 24.7051 24.2041H25.0027V22.502Z" fill="white"/>
</g>
<defs>
<clipPath id="clip0_1986_52533">
<rect width="100" height="100" fill="white"/>
</clipPath>
</defs>
</svg>
