<svg width="100" height="100" viewBox="0 0 100 100" fill="none" xmlns="http://www.w3.org/2000/svg">
<g clip-path="url(#clip0_1986_52598)">
<path d="M100 50C100 77.6146 77.6146 100 50 100C22.3854 100 0 77.6146 0 50C0 22.3854 22.3854 0 50 0C77.6146 0 100 22.3854 100 50Z" fill="#80D8B9"/>
<path d="M100 50C100 55.0881 99.24 59.9982 97.8264 64.6232C96.8438 67.8398 95.5467 70.9184 93.9689 73.8242C92.3576 76.793 65.1816 77.2795 50 77.2795C34.8184 77.2795 7.64238 76.793 6.0334 73.8242C5.39102 72.6463 4.79668 71.4395 4.25195 70.2049C1.51758 64.0273 0 57.1914 0 50C0 40.9729 2.39258 32.5059 6.57812 25.1953C15.1955 40.248 31.4141 50.3906 50 50.3906C68.5859 50.3906 84.8068 40.248 93.4219 25.1953C97.6074 32.5059 100 40.9729 100 50Z" fill="#80D8B9"/>
<path d="M93.9969 73.7695C92.5984 76.3521 90.9824 78.7973 89.1682 81.0801C87.5203 83.1568 85.7074 85.0977 83.7543 86.8853C74.86 95.0297 63.01 100 50.0004 100C36.9908 100 25.1408 95.0297 16.2465 86.8853C14.2934 85.0977 12.4805 83.1568 10.8326 81.0801C9.01836 78.7973 7.40234 76.3521 6.00391 73.7695H93.9969Z" fill="#3C84B1"/>
<g clip-path="url(#clip1_1986_52598)">
<path d="M22.0002 46.5879H30.2952C30.2952 48.7534 30.2952 50.9503 30.2952 53.1159C30.308 54.2973 30.562 55.4636 31.0411 56.5431C31.5202 57.6226 32.2143 58.5923 33.0811 59.3928C34.7641 61.016 37.0063 61.9265 39.3416 61.9349V84.2493C33.6759 84.2493 28.0415 84.2493 22.3758 84.2493C21.875 84.2493 21.8438 84.2493 21.8438 83.6844V46.5879H22.0002Z" fill="#FFF8CC"/>
<path d="M39.373 84.2492V62.0289C39.9678 62.0289 40.5625 62.029 41.126 61.8406C43.0688 61.442 44.8254 60.41 46.122 58.9056C47.4186 57.4012 48.1823 55.5089 48.2941 53.5238C48.2941 51.2327 48.2941 48.9102 48.2941 46.6191H56.6832V70.3459C56.6832 71.0049 56.6832 71.664 56.6832 72.3545V84.2492H39.373Z" fill="#FFDF66"/>
<path d="M56.7139 84.2502V72.3555H77.4672C77.4672 73.0145 77.4674 73.6736 77.6239 74.3327L77.9055 82.2102C77.9055 82.2102 77.9055 82.524 77.9055 82.6182C77.9055 82.7123 78.1246 83.9363 77.9055 84.2188C77.6864 84.5013 76.8725 84.2188 76.3091 84.2188L56.7139 84.2502Z" fill="#FEBC01"/>
<path d="M58.7807 18.75C58.7807 19.1266 59.125 19.0325 59.3128 19.0952C61.1278 19.5518 62.7815 20.5029 64.0908 21.8433C65.4002 23.1838 66.314 24.8613 66.7314 26.6903C67.0641 28.469 67.1796 30.2817 67.0757 32.0884V32.3395C67.0757 34.6619 67.0757 36.953 67.0757 39.2441C67.0757 39.7462 67.0758 39.9031 66.4811 39.8718C65.8864 39.8404 64.7281 39.8718 63.8516 39.8718C62.9752 39.8718 63.1317 39.8718 63.1317 39.1813C63.1317 36.9216 63.1317 34.6933 63.1317 32.4336C63.2414 30.9921 63.2414 29.5442 63.1317 28.1026C63.0118 27.2342 62.7118 26.4006 62.251 25.6556C61.7902 24.9105 61.1789 24.2705 60.4564 23.7767C59.7339 23.2829 58.9163 22.9464 58.0562 22.7888C57.1961 22.6311 56.3127 22.6558 55.4627 22.8614C54.2767 23.0804 53.1789 23.6382 52.3015 24.4678C51.4241 25.2974 50.8044 26.3634 50.5169 27.5376C50.2403 29.1646 50.1667 30.8198 50.2977 32.465C50.2977 34.7875 50.2977 37.0785 50.2977 39.3696C50.2977 39.809 50.2978 39.9659 49.7343 39.9659C48.8485 39.9028 47.9595 39.9028 47.0737 39.9659C46.5416 39.9659 46.4476 39.7776 46.4476 39.3068C46.4476 37.0157 46.4476 34.7561 46.4476 32.465C46.4476 31.4921 46.4476 30.5192 46.4476 29.5463C46.399 28.0253 46.6884 26.5126 47.2948 25.1176C47.9011 23.7225 48.8092 22.4802 49.9535 21.4804C51.1068 20.4376 52.4907 19.6846 53.9914 19.2835C54.2418 19.2835 54.6175 19.2835 54.7115 18.9069L58.7807 18.75Z" fill="#9ABDC9"/>
<path d="M46.3534 32.3711C46.3534 34.6622 46.3534 36.9218 46.3534 39.2129C46.3534 39.6837 46.3535 39.872 46.9795 39.872C47.8653 39.8089 48.7545 39.8089 49.6403 39.872C50.1098 39.872 50.2037 39.7151 50.2037 39.2757C50.2037 36.9846 50.2037 34.6935 50.2037 32.3711H56.6833V46.5883H36.9316L37.3073 37.8006C37.3073 36.1686 37.3073 34.6621 37.5264 32.936C37.5264 32.528 37.6829 32.4025 38.0898 32.4339L46.3534 32.3711Z" fill="#FEBC01"/>
<path d="M44.4747 46.589H48.3248C48.3248 48.8801 48.3248 51.2025 48.3248 53.4936C48.2131 55.4787 47.4494 57.371 46.1528 58.8754C44.8561 60.3798 43.0995 61.4118 41.1567 61.8105C40.5933 61.8105 39.9985 61.8105 39.4038 61.9988C37.0685 61.9903 34.8264 61.0799 33.1434 59.4567C32.2766 58.6562 31.5822 57.6864 31.1031 56.607C30.624 55.5275 30.3703 54.3612 30.3574 53.1798C30.3574 51.0142 30.3574 48.8173 30.3574 46.6518C30.3574 46.4949 30.6392 46.6518 30.827 46.6518H33.7381C33.8946 46.6518 34.0823 46.6518 34.2075 46.6518C34.2075 48.8173 34.2075 50.9828 34.2075 53.1483C34.2075 54.5218 34.7517 55.8389 35.7203 56.8101C36.6889 57.7812 38.0027 58.3268 39.3725 58.3268C40.7423 58.3268 42.056 57.7812 43.0246 56.8101C43.9932 55.8389 44.5374 54.5218 44.5374 53.1483L44.4747 46.589Z" fill="#9ABDC9"/>
<path d="M39.3727 58.1684C38.0463 58.1606 36.7751 57.6353 35.8285 56.7037C34.8818 55.7722 34.3343 54.5077 34.3018 53.1783C34.3018 51.0127 34.3018 48.8472 34.3018 46.6816H39.4978C39.3726 50.5106 39.3727 54.3395 39.3727 58.1684Z" fill="#FFF8CC"/>
<path d="M56.7141 46.5871V32.2758H62.9746C62.9746 34.5355 62.9746 36.7638 62.9746 39.0234C62.9746 39.5884 62.9747 39.7453 63.6947 39.7139C64.4146 39.6825 65.4475 39.7139 66.3239 39.7139C67.2004 39.7139 66.9187 39.7139 66.9187 39.0862C66.9187 36.7952 66.9187 34.5041 66.9187 32.1816H75.1512C75.6207 32.1816 75.7146 32.1816 75.7459 32.778C75.9024 37.3287 76.1215 41.8795 76.3093 46.4616C76.3093 50.0708 76.5911 53.7114 76.7476 57.352C76.9041 60.9926 77.0607 64.3821 77.2172 67.8972C77.2172 69.3409 77.2172 70.7846 77.2172 72.2283H56.4639C56.4639 71.5378 56.4639 70.8787 56.4639 70.2196L56.7141 46.5871Z" fill="#FE9000"/>
<path d="M39.373 58.1684C39.373 54.3395 39.373 50.5106 39.373 46.6816H44.5066V53.1468C44.474 54.4901 43.9187 55.7672 42.9595 56.7055C42.0003 57.6437 40.7131 58.1688 39.373 58.1684Z" fill="#FFDF66"/>
</g>
</g>
<defs>
<clipPath id="clip0_1986_52598">
<rect width="100" height="100" fill="white"/>
</clipPath>
<clipPath id="clip1_1986_52598">
<rect width="56.25" height="65.625" fill="white" transform="translate(21.875 18.75)"/>
</clipPath>
</defs>
</svg>
