<svg width="684" height="699" viewBox="0 0 684 699" fill="none" xmlns="http://www.w3.org/2000/svg">
<g clip-path="url(#clip0_1986_57612)">
<path d="M684 385.5C684 499.885 634.182 602.636 555.058 673.235C548.967 678.67 527.252 673.2 520.824 678.245C455.323 729.639 399.492 750.078 309.779 750.078C162.388 750.078 34.3181 667.361 -30.5453 545.818C-34.2392 538.896 -49.0057 552.771 -52.2809 545.606C-74.5767 496.842 -87 442.622 -87 385.5C-87 172.594 85.5941 0 298.5 0C511.406 0 684 172.594 684 385.5Z" fill="#00A4FB"/>
<path d="M640.562 349.222C644.489 364.727 646.576 380.966 646.576 397.692C646.576 506.384 558.462 594.498 449.77 594.498C370.9 594.498 302.868 548.106 271.471 481.121C251.428 487.999 229.925 491.735 207.549 491.735C98.856 491.735 10.7422 403.622 10.7422 294.929C10.7422 186.236 98.8545 98.1219 207.547 98.1219C247.281 98.1219 284.263 109.898 315.198 130.149C348.83 69.8524 413.249 29.0723 487.193 29.0723C595.886 29.0723 684 117.186 684 225.879C684 272.577 667.735 315.478 640.562 349.222Z" fill="#49B6FC"/>
<path d="M73.79 284.861C58.9408 300.798 37.6886 310.678 14.024 310.512C-25.7111 310.235 -59.9213 281.495 -67.1449 242.324L-86.5117 137.3C-87.4679 132.116 87.3428 270.316 73.79 284.861Z" fill="#00915D"/>
<path d="M69.8594 288.8C60.2219 297.812 6.06365 271.811 -37.0506 223.925C-59.0512 199.489 -86.5121 137.302 -86.5121 137.302C-87.4683 132.119 -82.9869 127.637 -77.8022 128.592L27.224 147.959C66.3944 155.183 95.1337 189.393 95.4123 229.128C95.5765 252.743 85.7372 273.956 69.8594 288.8Z" fill="#4BCD5C"/>
<path d="M109.831 324.934C107.626 327.139 104.735 328.241 101.845 328.241C98.9557 328.241 96.0644 327.139 93.8598 324.934L34.0968 265.171L-10.1679 264.863C-16.4052 264.819 -21.4272 259.728 -21.3836 253.489C-21.3399 247.279 -16.2923 242.275 -10.0911 242.275H-10.0113L11.3493 242.424L-27.2399 203.836C-31.6505 199.424 -31.6505 192.274 -27.2399 187.864C-22.8292 183.454 -15.6779 183.454 -11.2687 187.864L27.3204 226.451L27.1714 205.092C27.1277 198.853 32.1497 193.763 38.387 193.718H38.4668C44.6679 193.718 49.7156 198.722 49.7593 204.932L50.0695 249.199L109.833 308.96C114.243 313.374 114.243 320.524 109.831 324.934Z" fill="#007B4E"/>
<path d="M501.041 223.821V592.469C501.041 598.708 495.984 603.763 489.747 603.763C483.51 603.763 478.453 598.708 478.453 592.469V223.821C478.453 217.583 483.51 212.527 489.747 212.527C495.984 212.527 501.041 217.583 501.041 223.821Z" fill="#93D0FD"/>
<path d="M644.745 232.826C644.218 238.187 640.026 242.302 634.894 242.933C634.082 243.032 633.248 243.044 632.4 242.962C626.193 242.353 621.656 236.825 622.264 230.618C628.096 171.256 591.06 115.424 534.198 97.8645C528.238 96.0244 524.898 89.6998 526.74 83.7396C528.58 77.7809 534.903 74.4409 540.863 76.281C607.933 96.9941 651.621 162.83 644.745 232.826Z" fill="#93D0FD"/>
<path d="M675.042 336.323L488.939 265.964L304.167 339.748C297.175 342.54 291.73 333.306 297.556 328.54L451.541 202.549L480.027 5.64031C481.105 -1.81068 491.824 -1.90857 493.039 5.51984L525.159 201.869L681.445 324.994C687.357 329.653 682.085 338.985 675.042 336.323Z" fill="#BDE2FD"/>
<path d="M573.916 273.563C571.839 277.236 568.013 279.302 564.074 279.302C562.191 279.302 560.284 278.83 558.526 277.838L489.547 238.853L420.568 277.838C415.137 280.906 408.246 278.995 405.178 273.563C402.11 268.133 404.023 261.242 409.454 258.173L478.253 219.289V120.47C478.253 114.231 483.31 109.176 489.547 109.176C495.785 109.176 500.841 114.231 500.841 120.47V219.29L569.641 258.175C575.071 261.242 576.985 268.133 573.916 273.563Z" fill="white"/>
<path d="M543.763 426.982V677.477C540.905 679.837 538.013 682.155 535.088 684.433C534.217 685.111 533.345 691.237 532.47 691.907C522.937 699.197 513.054 706.053 502.85 712.445C496.821 716.222 473.245 701.579 466.997 705.024C411.863 735.438 361.795 735.662 294.376 735.662C198.356 735.662 137.706 727.609 70.2197 669.533C64.3408 664.473 44.8957 664.175 33.0656 661.027C29.5645 660.097 26.7305 620.384 25.1132 618.758C-1.37037 592.119 -23.9854 561.633 -41.8223 528.211V426.984L250.971 205.877L543.763 426.982Z" fill="#004F80"/>
<path d="M295.61 239.587L41.2962 431.635V661.458C41.2962 661.458 39.2618 665.175 34.8466 660.817C33.9657 659.948 25.9846 658.166 25.1112 657.288C3.93583 635.99 -14.7654 612.23 -30.5303 586.478C-31.8464 584.328 -33.1429 557.308 -34.4184 555.129C-36.9708 550.768 -39.4404 546.353 -41.8242 541.887V426.984L250.969 205.877L295.61 239.587Z" fill="#002F4D"/>
<path d="M99.442 521.652C103.853 526.064 103.853 533.214 99.442 537.624L79.0602 558.006V674.016C79.0602 680.255 74.0035 685.31 67.7662 685.31C61.5289 685.31 56.4723 680.255 56.4723 674.016V605.387L28.1937 577.108C23.7831 572.696 23.7831 565.546 28.1937 561.135C32.6044 556.726 39.7557 556.726 44.1649 561.135L56.4723 573.443V490.157C56.4723 483.918 61.5289 478.863 67.7662 478.863C74.0035 478.863 79.0602 483.918 79.0602 490.157V526.064L83.4708 521.653C87.8815 517.243 95.0328 517.243 99.442 521.652ZM454.793 537.624C459.204 533.212 459.204 526.063 454.793 521.652C450.384 517.243 443.233 517.243 438.822 521.652L434.411 526.062V490.155C434.411 483.916 429.355 478.861 423.117 478.861C416.88 478.861 411.823 483.916 411.823 490.155V573.441L399.516 561.134C395.105 556.725 387.954 556.725 383.545 561.134C379.134 565.546 379.134 572.696 383.545 577.107L411.823 605.385V711.261C411.823 717.499 416.88 722.555 423.117 722.555C429.355 722.555 434.411 717.499 434.411 711.261V558.006L454.793 537.624Z" fill="#4BCD5C"/>
<path d="M72.7812 678.246H180.974V744.12C178.578 743.353 176.192 742.564 173.815 741.753C171.745 741.045 169.682 748.958 167.628 748.217C130.409 734.787 95.8495 715.789 64.9552 692.231C50.883 681.499 72.7812 678.246 72.7812 678.246ZM325.51 678.246V756.167C326.818 756.076 328.125 755.979 329.431 755.876C330.083 755.825 333.337 769.45 334.31 769.36C395.815 763.695 453.137 743.581 502.849 712.444V692.329C502.849 684.553 496.544 678.248 488.767 678.248H325.51V678.246Z" fill="#FFC143"/>
<path d="M502.848 671.339V692.23H325.509V657.288H386.301C389.358 648.952 397.366 643.002 406.762 643.002C412.379 643.002 417.501 645.128 421.365 648.619C425.229 645.128 430.349 643.002 435.967 643.002C445.364 643.002 453.37 648.95 456.429 657.288H488.799C496.557 657.288 502.848 663.58 502.848 671.339ZM121.994 643.002C115.382 643.002 109.458 645.949 105.461 650.599C101.466 645.949 95.5404 643.002 88.9282 643.002C79.5316 643.002 71.5249 648.95 68.4665 657.288H25.1113C37.5693 669.818 50.8826 681.498 64.9579 692.23H180.977V657.288H142.457C139.399 648.95 131.39 643.002 121.994 643.002Z" fill="#FFB509"/>
<path d="M314.301 492.982V768.284C314.301 769.621 313.244 770.725 311.907 770.77C307.457 770.923 302.987 771 298.5 771C274.954 771 251.901 768.889 229.52 764.846C227.512 764.483 226.058 762.721 226.058 760.682V492.982H314.301Z" fill="#1AA8FF"/>
<path d="M230.16 492.982V764.96C216.232 762.468 202.562 759.229 189.196 755.285C187.341 754.738 186.074 753.022 186.074 751.088V492.984H230.16V492.982Z" fill="#008EE6"/>
<path d="M546.495 415.086L257.776 196.861C253.749 193.82 248.191 193.82 244.163 196.861L-48.6307 417.97C-51.4572 420.105 -53.1182 423.442 -53.1182 426.982V543.766C-46.4668 558.521 -38.9149 572.781 -30.5303 586.478V439.531H532.47V691.905C540.237 685.965 547.771 679.736 555.058 673.236V432.31C555.618 420.802 546.495 415.086 546.495 415.086ZM250.969 220.028L376.499 314.823L250.969 409.617L125.439 314.823L250.969 220.028ZM106.699 328.975L223.187 416.943H-9.78857L106.699 328.975ZM278.751 416.943L395.239 328.975L511.728 416.943H278.751Z" fill="#006EB3"/>
<path d="M323.016 481.688H178.923C172.686 481.688 167.629 486.743 167.629 492.981V748.216C175.054 750.896 182.587 753.354 190.217 755.582V711.543H311.722V770.776C319.308 770.52 326.84 770.046 334.309 769.358V492.981C334.309 486.743 329.253 481.688 323.016 481.688ZM311.722 504.275V584.349H190.217V504.275H311.722ZM190.217 688.955V606.937H311.722V688.955H190.217Z" fill="#006EB3"/>
<path d="M234.068 343.946C228.833 349.181 228.833 357.695 234.068 362.928C238.478 367.338 238.478 374.49 234.068 378.899C231.863 381.103 228.972 382.206 226.082 382.206C223.191 382.206 220.301 381.103 218.095 378.897C204.056 364.858 204.056 342.013 218.095 327.974C223.328 322.741 223.328 314.227 218.095 308.994C211.293 302.192 207.548 293.151 207.548 283.531C207.548 273.912 211.293 264.869 218.093 258.069C222.504 253.659 229.655 253.659 234.065 258.069C238.475 262.481 238.475 269.631 234.065 274.041C231.53 276.576 230.134 279.946 230.134 283.531C230.134 287.117 231.53 290.487 234.065 293.021C248.105 307.062 248.107 329.906 234.068 343.946ZM283.847 343.946C297.886 329.906 297.884 307.062 283.845 293.023C281.311 290.488 279.915 287.118 279.915 283.533C279.915 279.947 281.311 276.577 283.845 274.043C288.256 269.631 288.256 262.481 283.845 258.07C279.435 253.661 272.283 253.661 267.874 258.07C261.072 264.872 257.327 273.913 257.329 283.533C257.329 293.152 261.074 302.195 267.876 308.995C273.108 314.228 273.107 322.742 267.876 327.975C253.836 342.014 253.836 364.86 267.876 378.899C270.082 381.105 272.971 382.207 275.863 382.207C278.752 382.207 281.642 381.105 283.848 378.9C288.259 374.49 288.259 367.338 283.848 362.929C278.612 357.695 278.612 349.181 283.847 343.946Z" fill="white"/>
<path d="M166.866 149.483C162.199 125.043 171.937 99.0352 193.754 84.0354C215.571 69.0355 243.342 69.2524 264.49 82.3609C269.157 106.801 188.014 162.592 166.866 149.483Z" fill="#007B4E"/>
<path d="M166.865 149.484C162.199 125.044 243.342 69.2533 264.49 82.3618C269.157 106.802 259.418 132.81 237.601 147.809C215.785 162.811 188.014 162.592 166.865 149.484Z" fill="#00915D"/>
</g>
<defs>
<clipPath id="clip0_1986_57612">
<rect width="771" height="771" fill="white" transform="translate(-87)"/>
</clipPath>
</defs>
</svg>
