<svg width="183" height="183" viewBox="0 0 183 183" fill="none" xmlns="http://www.w3.org/2000/svg">
<path d="M160.79 156.861C145.941 172.798 124.689 182.678 101.024 182.512C61.2889 182.235 27.0787 153.495 19.8551 114.324L0.488284 9.30043C-0.467937 4.11575 174.343 142.316 160.79 156.861V156.861Z" fill="#00915D"/>
<path d="M156.859 160.8C147.222 169.812 93.0637 143.811 49.9494 95.925C27.9488 71.4894 0.487932 9.30195 0.487932 9.30195C-0.468289 4.11878 4.01315 -0.362667 9.19782 0.592048L114.224 19.9589C153.394 27.1825 182.134 61.3926 182.412 101.128C182.576 124.743 172.737 145.956 156.859 160.8Z" fill="#4BCD5C"/>
<path d="M166.831 166.934C164.626 169.139 161.735 170.241 158.845 170.241C155.956 170.241 153.064 169.139 150.86 166.934L121.097 137.171L76.8321 136.863C70.5948 136.819 65.5728 131.728 65.6164 125.489C65.6601 119.279 70.7077 114.275 76.9089 114.275H76.9887L98.3493 114.424L59.7601 75.8362C55.3495 71.424 55.3495 64.2742 59.7601 59.8635C64.1708 55.4544 71.3221 55.4544 75.7313 59.8635L114.32 98.4512L114.171 77.092C114.128 70.8533 119.15 65.7635 125.387 65.7183H125.467C131.668 65.7183 136.716 70.7223 136.759 76.9324L137.069 121.199L166.833 150.96C171.243 155.374 171.243 162.524 166.831 166.934Z" fill="#007B4E"/>
</svg>
