<svg width="38" height="109" viewBox="0 0 38 109" fill="none" xmlns="http://www.w3.org/2000/svg">
<rect width="11" height="47" transform="matrix(-1 0 0 1 23.1484 67)" fill="#93642D"/>
<rect width="11" height="39" transform="matrix(-1 0 0 1 23.1484 55)" fill="#714D22"/>
<path d="M0.148437 64.125C0.148437 75.1017 8.43117 84 18.6484 84C28.8657 84 37.1484 75.1017 37.1484 64.125C37.1484 53.1483 28.8657 31 18.6484 31C8.43118 31 0.148437 53.1483 0.148437 64.125Z" fill="#83C082"/>
<path fill-rule="evenodd" clip-rule="evenodd" d="M0.38979 64.6211C2.14531 71.8823 9.61975 77.3378 18.5741 77.3378C27.5285 77.3378 35.0029 71.8823 36.7584 64.6211C37.0141 65.9792 37.1484 67.2472 37.1484 68.3699C37.1484 77.2024 28.8324 84.3625 18.5741 84.3625C8.31579 84.3625 -0.000225067 77.2024 -0.000225067 68.3699C-0.000225067 67.2472 0.134144 65.9792 0.38979 64.6211Z" fill="#458244"/>
<path d="M3.14844 43C3.14844 51.2843 9.86417 58 18.1484 58C26.4327 58 33.1484 51.2843 33.1484 43C33.1484 34.7157 26.4327 18 18.1484 18C9.86417 18 3.14844 34.7157 3.14844 43Z" fill="#66A865"/>
<path d="M6.14844 24.75C6.14844 30.9632 11.521 36 18.1484 36C24.7759 36 30.1484 30.9632 30.1484 24.75C30.1484 18.5368 24.7759 6 18.1484 6C11.521 6 6.14844 18.5368 6.14844 24.75Z" fill="#83C082"/>
<path d="M10.1484 13.125C10.1484 17.4742 13.7302 21 18.1484 21C22.5667 21 26.1484 17.4742 26.1484 13.125C26.1484 8.77576 22.5667 0 18.1484 0C13.7302 0 10.1484 8.77576 10.1484 13.125Z" fill="#66A865"/>
</svg>
