<svg width="33" height="83" viewBox="0 0 33 83" fill="none" xmlns="http://www.w3.org/2000/svg">
<rect width="7.1612" height="33.7599" transform="matrix(-1 0 0 1 19.0742 54.1992)" fill="#93642D"/>
<rect width="7.1612" height="33.7599" transform="matrix(-1 0 0 1 19.0547 41.7168)" fill="#714D22"/>
<path d="M-0.000713348 55.3691C-0.000713348 64.2015 7.15939 71.3616 15.9918 71.3616C24.8243 71.3616 31.9844 64.2015 31.9844 55.3691C31.9844 46.5366 24.8243 28.7148 15.9918 28.7148C7.1594 28.7148 -0.000713348 46.5366 -0.000713348 55.3691Z" fill="#83C082"/>
<path fill-rule="evenodd" clip-rule="evenodd" d="M0.483536 51.6211C1.99506 58.8823 8.43056 64.3378 16.1403 64.3378C23.85 64.3378 30.2855 58.8823 31.797 51.6211C32.0171 52.9793 32.1328 54.2472 32.1328 55.37C32.1328 64.2024 24.9727 71.3625 16.1403 71.3625C7.30783 71.3625 0.147724 64.2024 0.147724 55.37C0.147724 54.2472 0.263418 52.9793 0.483536 51.6211Z" fill="#458244"/>
<path d="M2.61708 34.8933C2.61708 42.0672 8.54671 47.8828 15.8613 47.8828C23.1758 47.8828 29.1055 42.0672 29.1055 34.8933C29.1055 27.7194 23.1758 13.2441 15.8613 13.2441C8.54671 13.2441 2.61708 27.7194 2.61708 34.8933Z" fill="#66A865"/>
<path d="M5.85088 16.5552C5.85088 22.0412 10.4121 26.4884 16.0387 26.4884C21.6653 26.4884 26.2266 22.0412 26.2266 16.5552C26.2266 11.0693 21.6653 0 16.0387 0C10.4121 0 5.85088 11.0693 5.85088 16.5552Z" fill="#83C082"/>
</svg>
