<svg width="33" height="47" viewBox="0 0 33 47" fill="none" xmlns="http://www.w3.org/2000/svg">
<rect width="7.1612" height="33.7599" transform="matrix(-1 0 0 1 19.5117 18.5762)" fill="#93642D"/>
<rect width="7.1612" height="33.7599" transform="matrix(-1 0 0 1 19.4922 12.625)" fill="#714D22"/>
<path d="M0.0188179 26.6542C0.0188179 35.4867 7.17892 42.6468 16.0114 42.6468C24.8438 42.6468 32.0039 35.4867 32.0039 26.6542C32.0039 17.8218 24.8438 0 16.0114 0C7.17893 0 0.0188179 17.8218 0.0188179 26.6542Z" fill="#66A865"/>
<path fill-rule="evenodd" clip-rule="evenodd" d="M0.406664 22.5918C1.75241 30.0626 8.28696 35.7305 16.1453 35.7305C23.7101 35.7305 30.0481 30.4781 31.7116 23.4213C31.8907 24.6266 31.9844 25.7543 31.9844 26.7645C31.9844 35.597 24.8243 42.7571 15.9918 42.7571C7.15939 42.7571 -0.000711441 35.597 -0.000711441 26.7645C-0.000711441 25.5258 0.140127 24.1102 0.406664 22.5918Z" fill="#458244"/>
</svg>
