<svg width="461" height="472" viewBox="0 0 461 472" fill="none" xmlns="http://www.w3.org/2000/svg">
<path fill-rule="evenodd" clip-rule="evenodd" d="M49.4999 26.4679C20.0599 43.3869 3.05486 53.7309 2.26486 55.2019C0.610862 58.2779 0.416862 361.626 2.06586 365.246C3.41686 368.21 182.211 471.328 186.006 471.331C188.928 471.334 368.535 368.398 369.724 366.039C370.151 365.193 370.725 342.075 371 314.666L371.5 264.831L414.5 240.086C443.988 223.116 457.888 214.58 458.735 212.92C460.537 209.39 460.514 109.574 458.71 106.009C457.215 103.053 456.662 102.714 405.797 73.5299C383.013 60.4579 365.027 50.7499 363.59 50.7499C361.279 50.7499 273.855 100.14 269.75 103.765C268.127 105.198 268 108.951 268 155.421V205.531L231.126 226.766C210.846 238.445 193.971 248 193.626 248C193.282 248 193 204.645 193 151.655C193 61.1659 192.894 55.2139 191.25 53.7319C189.595 52.2399 109.693 5.94594 101.79 1.89894C99.7489 0.85494 97.4989 0.00694012 96.7899 0.0159401C96.0799 0.0249401 74.7999 11.9279 49.4999 26.4679ZM133.988 36.8419C153.894 48.3059 170.097 58.0929 169.994 58.5919C169.891 59.0919 153.462 68.8809 133.486 80.3469L97.1659 101.194L60.1279 79.8849C39.7579 68.1649 23.1979 58.4689 23.3289 58.3379C24.0179 57.6489 96.5999 16.0429 97.1469 16.0229C97.5029 16.0099 114.081 25.3789 133.988 36.8419ZM400.125 86.8939C420.092 98.3859 436.539 108.173 436.673 108.644C436.874 109.347 375.3 145.282 366.049 149.86C363.392 151.175 362.135 150.553 327.901 130.953C308.43 119.806 291.909 110.149 291.186 109.493C290.142 108.545 297.411 103.972 326.686 87.1569C346.934 75.5269 363.572 66.0089 363.66 66.0059C363.749 66.0029 380.158 75.4019 400.125 86.8939ZM78.2219 106.873L89.9439 113.5L89.9719 214.061C89.9989 310.511 90.0759 314.702 91.8499 316.561C92.8669 317.628 112.887 329.3 136.338 342.5L178.976 366.5L178.988 408.823C178.998 444.531 178.782 451.096 177.604 450.823C176.837 450.645 140.173 429.8 96.1289 404.5L16.0499 358.5L16.0249 214.809L15.9999 71.1189L41.2499 85.6819C55.1379 93.6919 71.7749 103.228 78.2219 106.873ZM179 163.88V256.759L143.249 277.315C123.586 288.621 106.709 298.174 105.744 298.545C104.078 299.184 104.002 294.536 104.245 206.447L104.5 113.676L141.5 92.3639C161.85 80.6429 178.613 71.0409 178.75 71.0259C178.887 71.0119 179 112.796 179 163.88ZM320.717 143.313L355.944 163.5L355.972 205.809C355.987 229.079 355.663 247.936 355.25 247.714C354.837 247.492 338.188 237.972 318.25 226.558L282 205.806V163.796C282 124.241 282.102 121.825 283.745 122.456C284.705 122.824 301.342 132.21 320.717 143.313ZM444.761 164.086L444.5 206.172L408.16 227.086C388.174 238.589 371.631 248 371.4 248C371.168 248 371.096 229 371.239 205.778L371.5 163.557L407.5 142.802C427.3 131.387 443.842 122.037 444.261 122.024C444.679 122.011 444.904 140.939 444.761 164.086ZM316.5 242.229C333.55 252.023 347.5 260.46 347.5 260.977C347.5 261.495 311.166 282.641 266.759 307.97L186.017 354.022L149.509 333.376C129.429 322.02 113 312.42 113 312.042C113 311.663 149.337 290.42 193.75 264.834L274.5 218.314L280 221.368C283.025 223.048 299.45 232.435 316.5 242.229ZM355.98 316.25L355.959 358.5L280.286 402C238.666 425.925 202 446.989 198.806 448.808L193 452.116L193.027 409.308L193.053 366.5L274.273 320.25C318.944 294.813 355.607 274 355.747 274C355.886 274 355.991 293.012 355.98 316.25Z" fill="black"/>
</svg>
