<svg width="974" height="494" viewBox="0 0 974 494" fill="none" xmlns="http://www.w3.org/2000/svg">
<path fill-rule="evenodd" clip-rule="evenodd" d="M35.5 0.494768C33.85 0.735768 29.332 2.39576 25.459 4.18276C12.519 10.1568 3.275 22.4858 1.035 36.7568C0.365 41.0298 0.0130004 119.223 0.00800037 265.007L0 486.757H43.497H86.993L87.247 344.007L87.5 201.257L166 338.757C229.897 450.678 245.43 477.199 249.5 481.318C258.586 490.516 272.263 494.832 285.75 492.757C295.083 491.32 305.805 485.915 311.088 479.982C313.686 477.064 345.076 422.872 393.148 338.311L471 201.365V344.061V486.757H515H559L558.988 262.507C558.978 75.7348 558.747 37.3958 557.605 33.1068C548.598 -0.72123 506.892 -11.3842 483.354 14.1238C478.459 19.4288 461.297 48.6538 378.543 192.612C324.116 287.292 279.341 364.74 279.043 364.718C278.744 364.697 255.576 324.759 227.558 275.968C77.722 15.0428 79.732 18.4918 74.274 12.9658C64.79 3.36278 49.508 -1.55223 35.5 0.494768ZM752.066 103.757L654.806 201.757H623.903H593V245.757V289.757H623.869H654.738L752.355 387.765L849.972 485.772L911.484 485.515L972.997 485.257L850.039 365.757C782.412 300.032 727.175 245.966 727.29 245.611C727.406 245.256 779.925 194.022 844 131.759C908.075 69.4948 963.421 15.6728 966.991 12.1538L973.481 5.75676H911.404H849.327L752.066 103.757Z" fill="black"/>
</svg>
